<?xml version="1.0" encoding="UTF-8" standalone="no"?>
<svg
   xmlns:dc="http://purl.org/dc/elements/1.1/"
   xmlns:cc="http://creativecommons.org/ns#"
   xmlns:rdf="http://www.w3.org/1999/02/22-rdf-syntax-ns#"
   xmlns:svg="http://www.w3.org/2000/svg"
   xmlns="http://www.w3.org/2000/svg"
   xmlns:sodipodi="http://sodipodi.sourceforge.net/DTD/sodipodi-0.dtd"
   xmlns:inkscape="http://www.inkscape.org/namespaces/inkscape"
   inkscape:version="1.0 (4035a4fb49, 2020-05-01)"
   sodipodi:docname="deadball.svg"
   id="svg1321"
   version="1.1"
   viewBox="0 0 210 297"
   height="297mm"
   width="210mm">
  <defs
     id="defs1315" />
  <sodipodi:namedview
     inkscape:window-maximized="1"
     inkscape:window-y="-9"
     inkscape:window-x="-9"
     inkscape:window-height="1051"
     inkscape:window-width="1920"
     showguides="false"
     showgrid="false"
     inkscape:document-rotation="0"
     inkscape:current-layer="layer1"
     inkscape:document-units="mm"
     inkscape:cy="159.17249"
     inkscape:cx="1094.3881"
     inkscape:zoom="0.175"
     inkscape:pageshadow="2"
     inkscape:pageopacity="0.0"
     borderopacity="1.0"
     bordercolor="#666666"
     pagecolor="#ffffff"
     id="base" />
  <metadata
     id="metadata1318">
    <rdf:RDF>
      <cc:Work
         rdf:about="">
        <dc:format>image/svg+xml</dc:format>
        <dc:type
           rdf:resource="http://purl.org/dc/dcmitype/StillImage" />
        <dc:title></dc:title>
      </cc:Work>
    </rdf:RDF>
  </metadata>
  <g
     id="layer1"
     inkscape:groupmode="layer"
     inkscape:label="Layer 1">
    <path
       id="path210"
       style="fill:#f48e5b;fill-opacity:1;fill-rule:nonzero;stroke:none;stroke-width:0.0462457"
       d="m -1030.7583,-9.6109852 h -2.0785 l -32.8092,-8.7915298 -1.4116,-0.3803 -8.2749,1.34836 -22.5122,3.66972 c 0,0 8.5606,13.35521976 14.4279,13.77009976 5.863,0.41983 20.8928,-4.17843996 20.8928,-4.17843996 0,0 4.4167,0.5186 9.418,1.11129 l -0.026,0.006 c 0,0 20.0397,4.17844 20.0397,15.3259002 0,0.53343 0.01,1.02239 0.022,1.48667 -0.2165,13.10828 -0.4979,24.71508 -0.4979,24.71508 h 2.0784 c 0,0 2.5505,-28.9873602 0.7318,-48.0817902" />
    <path
       id="path212"
       style="fill:#f5bc8f;fill-opacity:1;fill-rule:nonzero;stroke:none;stroke-width:0.0462457"
       d="m -1097.8447,-13.764735 22.5122,-3.66972 c -12.3148,1.50146 -22.5122,3.66972 -22.5122,3.66972" />
    <path
       id="path214"
       style="fill:#fcc99f;fill-opacity:1;fill-rule:nonzero;stroke:none;stroke-width:0.0462457"
       d="m -1033.0922,12.269065 c 0,-11.1474602 -20.0398,-15.3259202 -20.0398,-15.3259202 l 0.026,-0.006 c -5.0013,-0.59269 -9.418,-1.1113 -9.418,-1.1113 0,0 -15.0298,4.59826996 -20.8928,4.17845996 -5.8673,-0.41488 -14.4279,-13.77012976 -14.4279,-13.77012976 0,0 4.5293,18.7882098 3.4294,27.56986 -1.0998,8.78166 -3.2995,24.66568 -3.2995,24.66568 h 2.0784 62.0679 c 0,0 0.2814,-11.6068 0.4979,-24.71507 -0.013,-0.46427 -0.022,-0.95324 -0.022,-1.48665" />
    <path
       id="path216"
       style="fill:#f48e5b;fill-opacity:1;fill-rule:nonzero;stroke:none;stroke-width:0.0462457"
       d="m -1063.4593,-162.21323 c -0.2035,-3.33881 0.2555,-12.54028 0.5109,-19.23272 0.1819,-4.74148 0.4937,-12.25875 1.0176,-18.11648 -0.078,-10.12508 -1.5242,-22.12206 -9.0412,-20.87247 -7.9978,1.33848 -7.4392,31.83719 -7.4392,31.83719 -2.0828,12.48595 -1.4159,18.30417 -3.8408,27.88103 -1.8706,7.40858 -0.2252,16.16554 -0.827,20.32917 -2.1954,15.22219 -2.767,20.16126 -2.767,20.16126 0,0 5.6292,3.21039 11.0288,2.99801 4.8887,-0.19263 10.2017,-3.60057 11.1674,-4.2476 -0.7492,-4.77607 -1.0826,-7.56171 -1.0826,-13.70096 0,-6.12937 0.7665,-11.9871 1.2731,-17.28178 0.2641,-2.70661 0.2555,-5.57125 0,-9.75465" />
    <path
       id="path218"
       style="fill:#ffd3ab;fill-opacity:1;fill-rule:nonzero;stroke:none;stroke-width:0.0462457"
       d="m -1065.3516,-163.32945 c -0.1948,-3.33388 0.2468,-12.5403 0.4893,-19.23272 0.1732,-4.74151 0.472,-12.25876 0.9786,-18.11648 -0.078,-10.12509 -2.1217,-21.39604 -7.9847,-19.59821 -7.5084,2.30161 -7.8245,30.56292 -7.8245,30.56292 -1.9962,12.4909 -1.3597,18.30418 -3.6806,27.88596 -1.797,7.40859 -0.2208,16.16061 -0.7967,20.32424 -2.1045,15.22219 -2.6544,20.16126 -2.6544,20.16126 0,0 5.3997,3.21532 10.5785,2.99801 4.6895,-0.19262 9.786,-3.60058 10.7083,-4.2476 -0.7145,-4.77606 -1.0349,-7.5617 -1.0349,-13.70095 0,-6.1294 0.7318,-11.98217 1.2211,-17.28179 0.2512,-2.70166 0.2468,-5.57126 0,-9.75464" />
    <path
       id="path220"
       style="fill:#fcc99f;fill-opacity:1;fill-rule:nonzero;stroke:none;stroke-width:0.0462457"
       d="m -1042.9346,-6.7117652 -41.6816,-6.0355198 c -10.4226,-1.50641 -18.94,-10.20905 -21.3995,-21.85536 l -6.8892,-32.62252 c -0.4243,-2.00526 -0.4979,-4.07471 -0.2381,-6.08986 0.2814,-2.14849 1.1388,-4.13894 2.3253,-5.83303 2.1304,-3.04741 6.7809,-10.72271 12.3711,-26.206665 5.4732,-15.15306 11.3709,-19.56364 21.2305,-20.37365 1.1865,-0.0988 2.3816,0.0444 3.5377,0.3803 l 51.078,15.03452 c 6.9585,2.44977 10.3706,16.777995 8.8118,24.892885 l -13.025,65.51667 c -0.1125,0.55318 -0.2425,1.10635 -0.4243,1.6299 -2.4422,6.94432 -9.024,11.7747198 -14.6748,11.6561798 -0.3421,-0.006 -0.6841,-0.0444 -1.0219,-0.0938" />
    <path
       id="path222"
       style="fill:#f48e5b;fill-opacity:1;fill-rule:nonzero;stroke:none;stroke-width:0.0462457"
       d="m -1107.4879,-85.563905 c 0,0 24.8029,5.7145 35.0653,25.78191 10.2623,20.07236 10.6304,39.30507 10.6304,39.30507 l -45.0852,-62.29641 -0.6105,-2.79057" />
    <path
       id="path224"
       style="fill:#ffd3ab;fill-opacity:1;fill-rule:nonzero;stroke:none;stroke-width:0.0462457"
       d="m -1106.5093,-25.914835 c 0,0 -12.0983,-24.2508 -16.8614,-35.53656 -5.2092,-12.34272 -2.8536,-34.14376 14.3326,-24.80893 17.1906,9.33978 27.9466,17.42997 40.2831,43.62183 10.626,22.57645 5.8629,31.77298 0,35.5365498 -8.0021,5.13663 -26.0283,4.60322 -37.7543,-18.8128898" />
    <path
       id="path226"
       style="fill:#f48e5b;fill-opacity:1;fill-rule:nonzero;stroke:none;stroke-width:0.0462457"
       d="m -1104.3183,-70.825745 c 0,0 41.7856,-16.66934 32.8136,-43.567475 -7.3049,-21.8998 -16.4068,1.75337 -22.0446,6.72701 -5.2221,4.59827 -21.512,12.387165 -27.795,24.038415 -6.283,11.65126 17.026,12.80205 17.026,12.80205" />
    <path
       id="path228"
       style="fill:#ffd3ab;fill-opacity:1;fill-rule:nonzero;stroke:none;stroke-width:0.0462457"
       d="m -1066.5294,-10.262945 c 0,0 12.4361,-38.64816 30.7612,-54.95201 18.3293,-16.30385 20.8927,-14.21464 20.8927,-14.21464 0,0 -6.27,61.87659 -17.7967,69.8186098 -11.5268,7.94695 -33.8572,-0.6519598 -33.8572,-0.6519598" />
    <path
       id="path230"
       style="fill:#ffd3ab;fill-opacity:1;fill-rule:nonzero;stroke:none;stroke-width:0.0462457"
       d="m -1104.617,-73.349595 c 0,0 33.6796,-16.52117 30.5013,-39.675495 -3.174,-23.1494 -13.471,5.60089 -19.4769,8.7125 -6.0058,3.11162 -23.3912,7.719765 -29.6742,19.371005 -6.283,11.65125 18.6498,11.59199 18.6498,11.59199" />
    <path
       id="path232"
       style="fill:#d68265;fill-opacity:1;fill-rule:nonzero;stroke:none;stroke-width:0.0462457"
       d="m -1048.5897,-109.548 c 0.013,0.17781 0.035,0.32104 0.065,0.41489 0.048,0.16792 0.1125,0.17781 0.1948,0.0445 -0.1342,-0.29141 -0.1948,-0.45934 -0.1948,-0.45934 0,0 -0.022,0 -0.065,0" />
    <path
       id="path234"
       style="fill:#d68265;fill-opacity:1;fill-rule:nonzero;stroke:none;stroke-width:0.0462457"
       d="m -1032.4687,-100.65769 c -0.017,0.824835 0.095,1.185395 0.4373,0.726065 0.087,-0.123495 0.1862,-0.340815 0.2945,-0.622335 -0.1905,-0.13328 -0.2945,-0.21733 -0.2945,-0.21733 0,0 -0.1515,0.0543 -0.4373,0.11354" />
    <path
       id="path236"
       style="fill:#f48e5b;fill-opacity:1;fill-rule:nonzero;stroke:none;stroke-width:0.0462457"
       d="m -1013.4292,-93.421945 c 0,0 -0.6625,9.14219 -1.4463,13.99235 -1.1821,10.59924 -8.041,63.141 -18.3423,70.2384398 l 1.5891,1.11622 c 13.4407,-6.9690298 17.2815,-54.8581798 17.2815,-54.8581798 l 1.5372,-11.6957 1.2817,-17.83497 -1.9009,-0.95816" />
    <path
       id="path238"
       style="fill:#f48e5b;fill-opacity:1;fill-rule:nonzero;stroke:none;stroke-width:0.0462457"
       d="m -1070.3875,-105.98199 c 0,0 -9.9722,23.697615 2.5981,28.913275 11.0807,4.59333 18.3553,-20.66998 19.7929,-24.191535 1.5718,-3.8574 8.946,-19.69205 9.5436,-22.05785 1.3986,-5.50706 1.3943,-17.26697 -5.3261,-20.89224 -5.1615,-2.7807 -12.1416,0.33092 -15.7269,6.45534 -6.4909,11.07833 -7.0928,21.12933 -10.8816,31.77301" />
    <path
       id="path240"
       style="fill:#f48e5b;fill-opacity:1;fill-rule:nonzero;stroke:none;stroke-width:0.0462457"
       d="m -1045.1603,-111.31124 c 0,0 3.2606,-19.01046 11.8516,-22.85799 8.041,-3.60058 15.2809,3.54131 16.0863,7.80372 1.0696,5.69968 0,8.3964 -1.0738,14.99993 -1.0003,6.15902 -6.0839,6.71713 -6.82,8.89526 -3.4251,10.139905 -3.8927,14.214625 -7.3828,23.198785 -1.5848,4.08461 -4.538,12.35753 -12.3278,10.50045 -6.1618,-1.46689 -10.0849,-8.20873 -6.1705,-22.50237 2.7194,-9.912715 3.3948,-13.123105 5.837,-20.037785" />
    <path
       id="path242"
       style="fill:#f48e5b;fill-opacity:1;fill-rule:nonzero;stroke:none;stroke-width:0.0462457"
       d="m -1011.013,-116.7294 c -7.4391,-2.70661 -12.3885,8.0408 -15.3806,16.07665 -2.9877,8.040805 -4.6029,20.408225 -5.5685,26.542535 -0.9656,6.13432 3.0614,11.01411 7.6297,10.70789 5.1615,-0.34078 7.5733,-4.50442 9.2448,-9.27062 1.6021,-4.55876 3.3342,-10.45107 4.1742,-12.97986 1.1951,-3.60552 2.3859,-7.41847 4.001,-12.95022 2.308,-7.897575 3.9621,-15.197505 -4.1006,-18.126375" />
    <path
       id="path244"
       style="fill:#ffd3ab;fill-opacity:1;fill-rule:nonzero;stroke:none;stroke-width:0.0462457"
       d="m -1011.524,-114.39322 c -5.9279,-2.62758 -9.3876,4.57357 -11.8341,12.17479 -2.4466,7.606155 -5.4517,19.879735 -6.2657,25.693025 -0.8141,5.81326 3.1999,8.76682 6.8546,8.51987 4.1265,-0.28646 5.2524,-2.50904 6.625,-7.0184 1.3077,-4.3118 2.7366,-9.88801 3.4251,-12.27852 0.9786,-3.41783 2.0265,-6.38127 3.7542,-11.39936 2.1348,-6.223225 3.8625,-12.841565 -2.5591,-15.691405" />
    <path
       id="path246"
       style="fill:#ffd3ab;fill-opacity:1;fill-rule:nonzero;stroke:none;stroke-width:0.0462457"
       d="m -1043.3027,-111.11863 c 0,0 6.5125,-22.13688 14.3457,-21.26265 6.296,0.70133 8.6126,3.81295 9.483,7.74444 1.2773,5.7787 -6.2917,17.70161 -7.5734,21.36639 -3.2649,9.315085 -2.3426,8.272925 -5.6205,16.511295 -1.4939,3.73887 -5.9799,15.39505 -11.3232,14.0467 -5.2351,-1.32861 -8.4178,-6.95914 -4.5856,-20.13162 2.6587,-9.137265 2.9531,-11.927855 5.274,-18.274555" />
    <path
       id="path248"
       style="fill:#ffd3ab;fill-opacity:1;fill-rule:nonzero;stroke:none;stroke-width:0.0462457"
       d="m -1068.2744,-107.97737 c 0,0 -8.7252,22.196155 0.2468,26.152335 8.972,3.95126 12.5963,-11.66607 14.0296,-15.19256 1.4376,-3.521555 12.6266,-29.747985 13.38,-36.563885 0.7535,-6.82085 -8.5043,-14.69865 -15.8872,-5.21565 -7.1013,9.11751 -7.9804,20.17114 -11.7692,30.81976" />
    <path
       id="path308"
       style="fill:#f48e5b;fill-opacity:1;fill-rule:nonzero;stroke:none;stroke-width:0.0462457"
       d="m -895.55158,-16.54742 h -2.07845 l -32.8136,-8.79647 -1.4073,-0.38031 -8.27483,1.34836 -22.51659,3.66972 c 0,0 8.75115,12.0513099 14.42793,13.7750599 6.10114,1.8472 20.68064,-2.67697 20.68064,-2.67697 0,0 6.45186,0.12837 12.62227,0.40501 5.5945,1.66939 17.02167,6.11455 17.02167,14.53565 0,0.52848 0.008,1.02239 0.0218,1.48172 -0.21218,13.1082701 -0.49362,24.7200101 -0.49362,24.7200101 h 2.07411 c 0,0 2.55043,-28.9923101 0.73612,-48.08178" />
    <path
       id="path310"
       style="fill:#f5bc8f;fill-opacity:1;fill-rule:nonzero;stroke:none;stroke-width:0.0462457"
       d="m -962.64235,-20.70612 22.51659,-3.66972 c -12.31918,1.50147 -22.51659,3.66972 -22.51659,3.66972" />
    <path
       id="path312"
       style="fill:#fcc99f;fill-opacity:1;fill-rule:nonzero;stroke:none;stroke-width:0.0462457"
       d="m -897.88984,5.3326299 c 0,-8.4211 -11.42717,-12.86626 -17.02167,-14.53565 -6.17041,-0.2766 -12.62227,-0.40501 -12.62227,-0.40501 0,0 -14.5795,4.52417 -20.68064,2.67697 -5.67678,-1.72375 -14.42793,-13.7750599 -14.42793,-13.7750599 0,0 4.53363,18.7931499 3.43377,27.5698599 -1.09984,8.7816601 -3.29954,24.6706201 -3.29954,24.6706201 h 2.07412 62.07218 c 0,0 0.28146,-11.61174 0.49362,-24.7200101 -0.013,-0.45933 -0.0218,-0.95324 -0.0218,-1.48172" />
    <path
       id="path314"
       style="fill:#f5bc8f;fill-opacity:1;fill-rule:nonzero;stroke:none;stroke-width:0.0462457"
       d="m -880.28359,-91.81876 c 0,0 -1.93557,-20.52674 -2.2127,-30.63206 -0.22516,-8.23836 -19.04384,15.87909 -19.04384,15.87909 0,0 10.18877,16.01737 21.25654,14.75297" />
    <path
       id="path316"
       style="fill:#f48e5b;fill-opacity:1;fill-rule:nonzero;stroke:none;stroke-width:0.0462457"
       d="m -932.02412,-169.99918 c -0.41137,-3.30917 -0.53693,-12.5304 -0.70148,-19.22284 -0.12127,-4.74643 -1.82298,-12.26864 -1.66277,-18.15105 -0.72311,-10.09544 -2.9185,-21.94427 -10.33598,-20.07731 -7.89379,1.98552 -3.87978,32.36075 -3.87978,32.36075 -1.28604,12.62919 -0.2598,18.37332 -2.06979,28.12796 -1.40296,7.54196 0.79241,16.14087 0.45466,20.33907 -1.23409,15.36543 -1.49388,20.33906 -1.49388,20.33906 0,0 5.81966,2.74119 11.19334,2.08923 4.86272,-0.59763 9.94627,-4.43035 10.86857,-5.15639 -1.04788,-4.70198 -1.55449,-7.45305 -1.93988,-13.57253 -0.38537,-6.11951 0.008,-12.02169 0.18187,-17.34106 0.091,-2.72142 -0.0995,-5.58115 -0.61488,-9.73489" />
    <path
       id="path318"
       style="fill:#fcc99f;fill-opacity:1;fill-rule:nonzero;stroke:none;stroke-width:0.0462457"
       d="m -907.86209,-13.87044 -49.91321,-7.22586 c -5.77205,-0.83471 -10.49187,-5.65523 -11.85586,-12.11057 l -8.70786,-41.25107 c -0.72746,-3.43758 -0.43301,-7.05792 0.83572,-10.28312 0,0 5.92359,-6.51958 13.6182,-27.84151 5.81102,-16.09147 12.09833,-20.07235 23.0925,-20.48724 l 43.60857,26.20667 c 14.27205,10.30782 18.22112,15.27653 16.66227,23.3914 l -11.89483,57.16967 c -2.26462,7.58146 -9.47427,12.87613 -15.4455,12.43163" />
    <path
       id="path320"
       style="fill:#d68265;fill-opacity:1;fill-rule:nonzero;stroke:none;stroke-width:0.0462457"
       d="m -972.28552,-92.50034 c 0,0 24.80289,5.7145 35.0696,25.78192 10.26236,20.06741 10.62609,39.30012 10.62609,39.30012 l -45.08514,-62.29641 -0.61055,-2.78563" />
    <path
       id="path322"
       style="fill:#ffd3ab;fill-opacity:1;fill-rule:nonzero;stroke:none;stroke-width:0.0462457"
       d="m -931.06717,-17.70811 c 0,0 12.17628,-38.13944 30.50564,-54.44823 18.32504,-16.30385 19.2084,-14.45663 19.2084,-14.45663 0,0 -4.58993,62.1186 -16.11668,70.06555 -11.52244,7.9420199 -33.59736,-1.16069 -33.59736,-1.16069" />
    <path
       id="path324"
       style="fill:#d68265;fill-opacity:1;fill-rule:nonzero;stroke:none;stroke-width:0.0462457"
       d="m -913.38299,-116.48938 c 0.013,0.18274 0.0346,0.32599 0.0606,0.41983 0.0476,0.16793 0.11697,0.17287 0.19918,0.0445 -0.13422,-0.29635 -0.19918,-0.46428 -0.19918,-0.46428 0,0 -0.0218,0 -0.0606,0" />
    <path
       id="path326"
       style="fill:#ffd3ab;fill-opacity:1;fill-rule:nonzero;stroke:none;stroke-width:0.0462457"
       d="m -905.54115,-146.89425 c 2.54178,-7.2456 3.19562,-13.70591 3.71524,-17.84485 0.51961,-4.13892 3.13067,-14.80729 3.65029,-17.27682 1.68874,-8.00129 3.56368,-16.45203 3.77585,-16.76813 1.50688,-6.39608 6.42588,-27.02656 -2.31661,-27.34265 -8.1969,-0.2914 -12.63526,17.50404 -13.94296,23.79147 l -0.0346,0.70628 c 0,0 -3.62431,18.08192 -4.87571,23.31238 -1.55451,6.50476 -3.47275,10.2288 -4.81941,15.07897 -1.351,4.84522 -2.30363,10.63379 -3.36016,14.51096 -1.44194,5.30456 -4.8151,16.47672 -6.4389,20.93669 1.02624,1.99044 4.40372,5.917 8.64292,7.2061 5.05756,1.53604 7.82018,0.51366 10.86858,-0.76062 1.07819,-4.88473 4.26515,-23.06542 5.13551,-25.54978" />
    <path
       id="path328"
       style="fill:#ffd3ab;fill-opacity:1;fill-rule:nonzero;stroke:none;stroke-width:0.0462457"
       d="m -933.98132,-170.95243 c -0.40705,-3.31411 -0.5456,-12.53039 -0.72315,-19.22283 -0.12556,-4.74643 -1.84028,-12.26863 -1.70605,-18.15106 -0.71447,-10.0905 -3.45976,-21.16882 -9.19717,-18.89685 -7.34387,2.91405 -5.88029,31.12597 -5.88029,31.12597 -1.20377,12.61932 1.33367,18.37332 -0.37673,28.11314 -1.32933,7.53702 0.80108,16.14087 0.4893,20.33907 -1.14314,15.35555 -1.3813,20.32919 -1.3813,20.32919 0,0 5.58585,2.76094 10.73869,2.12379 4.66785,-0.57786 9.5349,-4.39576 10.41825,-5.11687 -1.01757,-4.70198 -1.51122,-7.45303 -1.89658,-13.57748 -0.3854,-6.11456 -0.026,-12.01179 0.1299,-17.33611 0.0779,-2.72142 -0.10827,-5.58115 -0.61487,-9.72996" />
    <path
       id="path330"
       style="fill:#f48e5b;fill-opacity:1;fill-rule:nonzero;stroke:none;stroke-width:0.0462457"
       d="m -895.50827,-225.92913 c 7.04941,2.14355 2.54177,21.07004 1.1085,27.14508 -0.21217,0.3161 -2.08711,8.76684 -3.77585,16.76813 -0.51962,2.46953 -3.13068,13.1379 -3.65029,17.27682 -0.51962,4.13894 -1.17346,10.59925 -3.71524,17.84485 -0.73179,2.08923 -4.71983,18.61039 -5.9669,26.18691 l -0.091,0.43465 c 0.77509,-0.16793 1.59348,-0.51861 2.32528,-0.94832 1.28171,-7.99633 4.51197,-22.86786 5.2048,-24.84843 2.53744,-7.24066 3.19561,-13.70094 3.71523,-17.83988 0.51961,-4.13894 3.12634,-14.80731 3.65028,-17.27686 1.68875,-8.00127 3.55935,-16.45694 3.77586,-16.77305 1.99185,-7.49255 5.39532,-26.76478 -2.58074,-27.9699" />
    <path
       id="path332"
       style="fill:#f48e5b;fill-opacity:1;fill-rule:nonzero;stroke:none;stroke-width:0.0462457"
       d="m -896.80297,-14.13222 c 13.44067,-6.96902 16.10368,-56.45348 16.10368,-56.45348 0,0 4.15257,-26.77469 -0.65384,-16.02727 -1.18213,10.59429 -6.36094,63.383 -16.65795,70.48536 l 1.20811,1.99539" />
    <path
       id="path334"
       style="fill:#f48e5b;fill-opacity:1;fill-rule:nonzero;stroke:none;stroke-width:0.0462457"
       d="m -969.88664,-89.87276 c 0,0 24.80289,5.71449 35.06527,25.78686 10.26669,20.06741 10.63042,39.30012 10.63042,39.30012 l -45.08514,-62.2964 -0.61055,-2.79058" />
    <path
       id="path336"
       style="fill:#ffd3ab;fill-opacity:1;fill-rule:nonzero;stroke:none;stroke-width:0.0462457"
       d="m -968.90803,-30.22368 c 0,0 -12.09833,-24.24588 -16.86146,-35.53655 -5.20912,-12.33779 -2.84921,-34.14377 14.33701,-24.80894 17.18622,9.33978 27.94655,17.42997 40.2787,43.62181 10.63045,22.57646 5.86298,31.77793 0,35.54151 -8.00204,5.1316799 -26.02397,4.5982699 -37.75425,-18.81783" />
    <path
       id="path338"
       style="fill:#d68265;fill-opacity:1;fill-rule:nonzero;stroke:none;stroke-width:0.0462457"
       d="m -901.53146,-106.25563 c 0.24249,0 0.23382,-0.62727 -0.0173,-0.62727 -0.24247,0 -0.23382,0.62727 0.0173,0.62727 v 0" />
    <path
       id="path340"
       style="fill:#d68265;fill-opacity:1;fill-rule:nonzero;stroke:none;stroke-width:0.0462457"
       d="m -903.22454,-106.56679 c 0.003,0.14816 0.008,0.2914 0.008,0.43956 0.008,0.29141 0.26846,0.28154 0.27279,-0.01 0.005,-0.14322 0.008,-0.29141 0.013,-0.43463 0.008,-0.31611 -0.30311,-0.31116 -0.29445,0.006 v 0" />
    <path
       id="path342"
       style="fill:#d68265;fill-opacity:1;fill-rule:nonzero;stroke:none;stroke-width:0.0462457"
       d="m -900.37966,-108.81901 c 0.25982,0.0248 0.51529,0.0889 0.77078,0.11858 0.38537,0.0494 0.38103,-1.05201 -0.0218,-1.00263 -0.25549,0.0297 -0.50664,0.0938 -0.7621,0.11858 -0.30312,0.0247 -0.28579,0.74086 0.013,0.76556 v 0" />
    <path
       id="path344"
       style="fill:#f48e5b;fill-opacity:1;fill-rule:nonzero;stroke:none;stroke-width:0.0462457"
       d="m -899.79509,-108.10778 c 2.40756,0.90878 3.6243,3.12642 5.30005,5.10698 1.68875,2.00032 3.52038,2.80539 5.75039,3.80802 6.64674,2.98814 7.01913,9.88306 7.76823,17.08423 0.0823,0.75074 1.4506,1.02733 1.51123,0.28646 0.49794,-6.26766 -0.472,-14.10596 -5.89763,-17.54849 -2.702,-1.7188 -5.72008,-2.38064 -8.03669,-4.78596 -1.95721,-2.03489 -3.581,-4.50442 -6.19206,-5.44286 -0.62354,-0.22718 -0.74044,1.28419 -0.20352,1.49162 v 0" />
    <path
       id="path346"
       style="fill:#f48e5b;fill-opacity:1;fill-rule:nonzero;stroke:none;stroke-width:0.0462457"
       d="m -881.92904,-113.45184 c 0,0 -2.75828,4.12905 -7.09706,6.42571 -4.33011,2.29666 -12.60928,4.12906 -12.60928,4.12906 0,0 -3.15233,9.18172 -13.39738,13.7701 -10.24505,4.5884 -10.34032,-8.35195 -8.66888,-10.55477 2.39454,-3.16101 5.26542,-10.9993 5.12252,-10.55478 0,0 0,-0.91867 -4.72847,1.37305 -4.72851,2.29668 -7.43049,5.08724 -10.24506,6.42572 -13.03365,6.20841 -13.56191,-10.52514 -9.32707,-14.22449 2.62838,-2.29666 7.42181,-9.72008 10.769,-12.08589 4.33877,-3.06221 8.01504,-3.52156 13.5316,-7.65061 5.51656,-4.12905 7.48677,-13.31078 17.33777,-8.25811 9.85534,5.04772 4.33445,18.81288 4.33445,18.81288 0,0 3.55069,-3.66972 8.67322,-2.29171 5.12252,1.37307 6.30464,7.33944 6.30464,14.68384 v 0" />
    <path
       id="path348"
       style="fill:#ffd3ab;fill-opacity:1;fill-rule:nonzero;stroke:none;stroke-width:0.0462457"
       d="m -882.31443,-116.6573 c 0,0 -2.69333,3.94631 -6.91951,6.13926 -4.23053,2.19294 -12.30619,3.94631 -12.30619,3.94631 0,0 -3.07439,8.77176 -13.0726,13.15766 -9.99824,4.38589 -10.08918,-7.98153 -8.45672,-10.08556 2.33826,-3.02272 5.13551,-10.51033 4.99695,-10.08557 0,0 0,-0.87916 -4.6159,1.31379 -4.61157,2.19294 -7.2486,4.86004 -9.99389,6.13925 -12.71755,5.93675 -13.23284,-10.06088 -9.10191,-13.59231 2.56343,-2.19293 6.32197,-9.78429 9.5912,-12.04637 4.23053,-2.92392 8.73817,-2.86465 14.1205,-6.8159 5.38233,-3.94631 7.3049,-12.71809 16.91776,-7.89262 9.61285,4.82547 5.64647,16.44708 5.64647,16.44708 0,0 2.0438,-1.97563 7.04076,-0.6569 4.99695,1.31379 6.15308,7.01347 6.15308,14.03188 v 0" />
    <path
       id="path350"
       style="fill:#f48e5b;fill-opacity:1;fill-rule:nonzero;stroke:none;stroke-width:0.0462457"
       d="m -966.71266,-75.1346 c 0,0 41.78127,-16.66934 32.80927,-43.56748 -7.30491,-21.89981 -16.40679,1.75831 -22.04461,6.72701 -5.22211,4.6032 -21.512,12.38716 -27.795,24.03842 -6.28299,11.65126 17.03034,12.80205 17.03034,12.80205" />
    <path
       id="path352"
       style="fill:#ffd3ab;fill-opacity:1;fill-rule:nonzero;stroke:none;stroke-width:0.0462457"
       d="m -967.01143,-77.65845 c 0,0 33.67961,-16.52117 30.50131,-39.67057 -3.17831,-23.14938 -13.47098,5.59596 -19.48118,8.70757 -6.00587,3.1116 -23.39127,7.71976 -29.67427,19.37101 -6.28298,11.65126 18.65414,11.59199 18.65414,11.59199" />
    <path
       id="path354"
       style="fill:#d68265;fill-opacity:1;fill-rule:nonzero;stroke:none;stroke-width:0.0462457"
       d="m -919.67896,-110.70573 c 0.75342,-1.3138 1.36831,-2.71649 2.06546,-4.0698 0.65385,-1.26934 1.4376,-2.48928 1.93988,-3.84753 0.14291,-0.38029 -0.19052,-1.71879 -0.66684,-1.10141 -0.90067,1.16069 -1.48523,2.71155 -2.07411,4.10437 -0.61488,1.45208 -1.21678,2.90911 -1.6238,4.45504 -0.0606,0.23706 0.13423,0.84953 0.35941,0.45933 v 0" />
    <path
       id="path356"
       style="fill:#d68265;fill-opacity:1;fill-rule:nonzero;stroke:none;stroke-width:0.0462457"
       d="m -915.94208,-118.55883 c 0.80539,-0.20746 1.29903,-1.1113 0.98293,-2.03491 -0.0953,-0.28152 -0.29445,-0.44946 -0.55425,-0.37042 -0.25547,0.0741 -0.2728,0.41981 -0.46765,0.47414 -0.38537,0.0988 -0.55859,0.54824 -0.53694,0.97793 0.013,0.28648 0.18187,1.05697 0.57591,0.95326 v 0" />
    <path
       id="path358"
       style="fill:#d68265;fill-opacity:1;fill-rule:nonzero;stroke:none;stroke-width:0.0462457"
       d="m -915.01978,-119.438 c 0.0606,-0.0394 0.11686,-0.079 0.17322,-0.12348 0.22516,-0.16299 0.32042,-0.41982 0.33774,-0.72111 0.013,-0.26177 -0.0346,-0.6964 -0.25547,-0.84951 -0.0519,-0.0394 -0.10394,-0.0741 -0.15589,-0.11354 -0.4893,-0.34575 -0.80107,0.2272 -0.83138,0.74579 -0.013,0.28647 0.026,0.58775 0.17754,0.82482 0.10827,0.17781 0.35507,0.38526 0.55424,0.23708 v 0" />
    <path
       id="path360"
       style="fill:#d68265;fill-opacity:1;fill-rule:nonzero;stroke:none;stroke-width:0.0462457"
       d="m -880.96775,-76.59161 c 0.12556,0 0.11697,-0.31116 -0.003,-0.31116 -0.12128,0 -0.11697,0.31116 0.003,0.31116 v 0" />
    <path
       id="path362"
       style="fill:#f48e5b;fill-opacity:1;fill-rule:nonzero;stroke:none;stroke-width:0.0462457"
       d="m -937.38914,-123.93255 c 1.40729,-1.07671 2.06114,-2.65227 2.98345,-4.23277 1.55453,-2.65228 3.5507,-3.91174 6.18773,-4.6921 4.18723,-1.23971 7.64699,-2.33619 11.15005,-5.38359 3.48141,-3.03258 6.94116,-7.06286 11.5744,-7.39377 6.89787,-0.49392 11.80821,7.132 10.00688,14.51096 -0.23382,0.95818 0.77943,2.44978 1.11284,1.07671 1.27307,-5.27491 0.26847,-11.18203 -3.55503,-14.78261 -4.26082,-4.0204 -9.68212,-3.45241 -14.09883,-0.16794 -2.11311,1.57063 -3.98804,3.50674 -6.00154,5.23543 -2.64138,2.26702 -5.26542,3.52154 -8.4697,4.35625 -2.32961,0.60749 -4.81076,1.15574 -6.6987,2.95356 -2.02216,1.92623 -3.06139,5.02302 -4.58558,7.42341 -0.16888,0.26671 -0.0389,1.42738 0.39403,1.09646 v 0" />
    <path
       id="path364"
       style="fill:#f48e5b;fill-opacity:1;fill-rule:nonzero;stroke:none;stroke-width:0.0462457"
       d="m -881.13663,-104.19605 c -0.42436,-7.50243 1.20377,-16.1458 -1.7667,-23.18889 -2.24299,-5.32432 -7.65996,-5.90714 -12.09833,-4.12413 -3.36016,1.34837 -6.30464,3.74381 -9.63449,5.18107 -2.71499,1.17056 -5.53389,1.86697 -8.19258,3.14125 -0.3161,0.13834 -0.6322,0.28153 -0.93531,0.43958 -0.29444,0.14817 -0.56724,0.32598 -0.82705,0.52354 -0.0866,0.0543 -0.16886,0.0938 -0.25547,0.14818 -0.0779,0.0543 -0.1429,0.13328 -0.19919,0.22719 -0.34208,0.31116 -0.64518,0.66679 -0.92232,1.05202 -1.11717,1.20514 -1.8273,2.92886 -2.4465,4.59333 -1.48957,4.01546 -3.22594,7.80866 -4.84541,11.75004 -1.52419,3.72404 -3.32985,13.51821 1.93557,14.88632 0.49363,0.12839 0.54993,-0.77542 0.34207,-1.09647 -1.63245,-2.50904 -2.8189,-4.78101 -2.40753,-8.05066 0.42434,-3.3487 2.17804,-6.30225 3.51605,-9.25087 1.89658,-4.16363 2.82324,-8.63842 5.42995,-12.25382 2.35126,-1.51136 4.87571,-2.32629 7.44348,-3.21039 2.81457,-0.96806 5.33902,-2.33618 7.94142,-3.89197 4.58992,-2.73624 12.52268,-6.00591 15.3589,1.37799 2.39456,6.2331 1.20378,14.01211 1.31638,20.62059 0.0564,3.16593 0.35938,6.34176 0.93529,9.44348 0.74046,4.02534 1.66276,7.9025 0.41569,11.9476 -0.24682,0.80013 0.61488,3.05236 1.1648,1.7435 2.99211,-7.12707 -0.85303,-14.73323 -1.26872,-22.00848" />
    <path
       id="path40"
       style="fill:#f48e5b;fill-opacity:1;fill-rule:nonzero;stroke:none;stroke-width:0.0462457"
       d="m -748.03119,-151.76869 c 1.75143,-3.59124 2.79128,-12.17715 3.02627,-16.93844 0.20142,-4.07398 2.64861,-13.53066 3.34883,-16.16441 -0.0321,0.0895 -0.0496,0.14683 -0.0496,0.14683 0,0 6.3012,-28.19608 -0.45259,-32.34605 -6.487,-3.98522 -10.03649,5.76911 -11.22484,9.14749 -0.56769,2.75857 -2.31962,11.39512 -2.44096,13.84358 -0.23458,4.76121 -2.31033,14.44679 -2.02054,12.31209 -1.61638,6.27067 -5.51659,20.87813 -5.91154,23.86513 -0.72787,5.50662 -5.61596,26.48594 -6.75902,27.96007 0.52881,1.40092 2.38799,5.44873 6.96797,8.04286 4.47855,2.53942 7.91572,2.48876 9.12106,2.36011 0.20996,-2.08803 1.48689,-7.0135 1.8082,-9.44673 0.45123,-3.4137 2.42523,-18.34859 4.58683,-22.7825" />
    <path
       id="path42"
       style="fill:#f48e5b;fill-opacity:1;fill-rule:nonzero;stroke:none;stroke-width:0.0462457"
       d="m -742.94398,-137.61495 c 0,0 10.60748,3.09679 5.99028,25.23367 -4.61675,22.131939 -7.38848,23.401269 -7.38848,23.401269 l -5.37583,-29.303459 6.77403,-19.33148" />
    <path
       id="path44"
       style="fill:#f48e5b;fill-opacity:1;fill-rule:nonzero;stroke:none;stroke-width:0.0462457"
       d="m -807.7661,-176.62693 c -0.91473,-3.18005 -2.44892,-12.22869 -3.64097,-18.78798 -0.84438,-4.64722 -2.15836,-12.02212 -2.90731,-17.84826 -2.25626,-9.79299 -6.23688,-21.01931 -13.2528,-17.70604 -7.46781,3.53539 -0.36985,32.94676 -0.36985,32.94676 0.66782,12.68655 2.56229,18.14141 2.27344,28.10327 -0.22398,7.70658 3.25608,15.73525 3.56902,19.93973 1.14321,15.37182 1.64931,20.32043 1.64931,20.32043 0,0 6.14707,1.53786 11.33785,-0.17895 4.698,-1.55423 9.11735,-6.34467 9.91227,-7.24142 -1.75268,-4.42082 -2.67275,-7.02872 -3.99269,-12.9805 -1.31782,-5.9422 -1.83675,-11.83472 -2.48101,-17.11027 -0.3292,-2.69689 -0.95057,-5.47248 -2.09726,-9.45677" />
    <path
       id="path46"
       style="fill:#fcc99f;fill-opacity:1;fill-rule:nonzero;stroke:none;stroke-width:0.0462457"
       d="m -827.11231,-27.355311 c 0,0 4.53062,18.7881903 3.43119,27.56985025 -1.09941,8.78165005 -3.29911,24.66566975 -3.29911,24.66566975 h 64.14588 c 0,0 0.73308,-30.1035897 0.73308,-48.08177 0,-17.97325 -65.01104,-4.15375 -65.01104,-4.15375" />
    <path
       id="path48"
       style="fill:#fcc99f;fill-opacity:1;fill-rule:nonzero;stroke:none;stroke-width:0.0462457"
       d="m -744.11136,-138.03478 -5.3555,16.04207 c -0.89721,-0.87419 -1.88186,-1.53604 -2.95184,-1.9114 l -52.75595,-15.52348 c -10.99633,0.41487 -17.28408,4.39576 -23.09249,20.48229 -7.69721,21.326879 -13.61821,27.841499 -13.61821,27.841499 -1.27046,3.23015 -1.56577,6.84553 -0.83917,10.28806 l 8.71176,41.25106 c 1.36268,6.45536 6.08121,11.27589 11.8541,12.11058 l 49.9128,7.22585 c 5.97167,0.44451 13.18087,-4.85017 15.44638,-12.43163 l 12.00265,-60.38004 0.008,0.0445 c 0,0 1.91171,-0.30621 6.06603,-21.208319 4.15431,-20.90705 -5.38925,-23.83098 -5.38925,-23.83098" />
    <path
       id="path50"
       style="fill:#f48e5b;fill-opacity:1;fill-rule:nonzero;stroke:none;stroke-width:0.0462457"
       d="m -760.2653,-23.201561 -2.1473,-0.95818 c 0.0428,0.31117 0.0702,0.62727 0.0702,0.95818 l -32.37236,-8.673 -0.44081,-0.11858 -1.40946,-0.38029 -8.27312,1.34835 -22.51484,3.66973 c 0,0 1.20203,1.8719 3.01418,4.24265 3.02371,3.94631 7.7457,9.27062 11.41288,9.52745 5.86471,0.41982 20.89282,-4.17844 20.89282,-4.17844 0,0 4.41713,0.5186 9.42144,1.11128 l -0.0277,0.006 c 0,0 20.03804,4.17845 20.03804,15.3259103 0,0.53341995 0.008,1.02238995 0.0225,1.48666995 -0.21391,13.10827975 -0.49709,24.71506975 -0.49709,24.71506975 h 2.07715 c 0,0 2.5513,-28.9873597 0.73352,-48.08178" />
    <path
       id="path52"
       style="fill:#f5bc8f;fill-opacity:1;fill-rule:nonzero;stroke:none;stroke-width:0.0462457"
       d="m -827.35305,-27.355311 22.51485,-3.66972 c -12.31657,1.50146 -22.51485,3.66972 -22.51485,3.66972" />
    <path
       id="path54"
       style="fill:#f48e5b;fill-opacity:1;fill-rule:nonzero;stroke:none;stroke-width:0.0462457"
       d="m -836.94859,-98.818611 c 0,0 24.44306,5.37863 34.70629,25.44604 10.26324,20.07235 10.63002,39.30507 10.63002,39.30507 l -45.08516,-62.2964 -0.25115,-2.45471" />
    <path
       id="path56"
       style="fill:#ffd3ab;fill-opacity:1;fill-rule:nonzero;stroke:none;stroke-width:0.0462457"
       d="m -796.34207,-23.932541 c 0,0 12.42698,-38.56915 30.75463,-54.87299 18.3272,-16.30385 20.89279,-14.21464 20.89279,-14.21464 0,0 -6.27172,61.87659 -17.79763,69.81861 -11.52589,7.94695 -33.84979,-0.73098 -33.84979,-0.73098" />
    <path
       id="path60"
       style="fill:#d68265;fill-opacity:1;fill-rule:nonzero;stroke:none;stroke-width:0.0462457"
       d="m -782.18691,-200.81484 c -0.021,-0.53292 -0.033,-0.85176 -0.033,-0.85176 0,0 -0.0151,0.20402 -0.0412,0.54593 0.003,0.91823 -0.005,1.44714 -0.005,1.44714 0,0 0.0149,-0.43501 0.0787,-1.14131" />
    <path
       id="path62"
       style="fill:#ffd3ab;fill-opacity:1;fill-rule:nonzero;stroke:none;stroke-width:0.0462457"
       d="m -776.96371,-155.86581 c 1.38522,-7.64129 1.03744,-14.13159 0.91204,-18.30834 -0.12659,-4.18149 0.80195,-15.20711 0.93515,-17.74572 0.43218,-8.21016 0.97479,-16.9054 1.13646,-17.26059 0.49876,-6.59714 2.16739,-27.8959 -6.48738,-26.45155 -8.11586,1.3517 -9.74571,19.76 -10.06786,26.20972 l 0.0754,0.70226 c 0,0 -0.78517,18.52783 -1.21277,23.925 -0.53142,6.71444 -1.84393,10.77024 -2.42583,15.81305 -0.58146,5.04272 -0.62997,10.93301 -1.07233,14.95739 -0.60381,5.51438 -2.20593,17.1831 -3.11957,21.89861 1.31773,1.75796 5.24748,4.94286 9.61554,5.3646 5.21918,0.50477 7.78012,-1.06048 10.58558,-2.92295 0.31068,-5.0212 0.64919,-23.55601 1.12548,-26.18147" />
    <path
       id="path64"
       style="fill:#ffd3ab;fill-opacity:1;fill-rule:nonzero;stroke:none;stroke-width:0.0462457"
       d="m -809.84056,-177.17977 c -0.90569,-3.17754 -2.45944,-12.22565 -3.66113,-18.78215 -0.85193,-4.64503 -2.17765,-12.01656 -2.9476,-17.83664 -2.25331,-9.79385 -6.65504,-20.14976 -11.95244,-16.7668 -6.78512,4.33187 -1.01744,31.81919 -1.01744,31.81919 0.75117,12.66758 2.61854,18.12516 2.42606,28.06431 -0.14927,7.68502 3.26424,15.7278 3.60109,19.92539 1.23012,15.34675 1.75931,20.28869 1.75931,20.28869 0,0 5.92522,1.60696 10.90043,-0.0528 4.50447,-1.49842 8.69657,-6.54423 9.45475,-7.42531 -1.72328,-4.42929 -2.61484,-6.72954 -3.93481,-12.68133 -1.31781,-5.9422 -1.86547,-11.82133 -2.53096,-17.09585 -0.33906,-2.68893 -0.96107,-5.46945 -2.09726,-9.45678" />
    <path
       id="path66"
       style="fill:#d68265;fill-opacity:1;fill-rule:nonzero;stroke:none;stroke-width:0.0462457"
       d="m -772.18185,-184.36977 c 0,0 0.0247,0.26069 0.0693,0.70608 -0.002,-0.0872 -0.005,-0.21608 -0.006,-0.37649 -0.0231,-0.11607 -0.045,-0.22735 -0.0632,-0.32959" />
    <path
       id="path68"
       style="fill:#f48e5b;fill-opacity:1;fill-rule:nonzero;stroke:none;stroke-width:0.0462457"
       d="m -779.24713,-235.68146 c 7.26924,0.69848 5.74047,20.23054 5.26707,26.501 -0.16167,0.35519 -0.70428,9.05043 -1.13646,17.26059 -0.1332,2.53861 -1.06174,13.56423 -0.93515,17.74572 0.1254,4.17675 0.47318,10.66705 -0.91204,18.30834 -0.40029,2.20283 -1.75136,18.32326 -1.81183,26.03887 l 0.003,0.60192 c 0.74644,-0.38716 1.63073,-0.94379 2.18432,-2.02373 0.0324,-8.12649 0.82033,-22.01007 1.19864,-24.09782 1.38563,-7.64137 1.03742,-14.13158 0.91203,-18.30832 -0.12581,-4.17664 0.80273,-15.20227 0.93595,-17.74088 0.43096,-8.21493 0.97356,-16.91016 1.13566,-17.26545 0.81129,-7.7773 1.19436,-27.43117 -6.84123,-27.02024" />
    <path
       id="path70"
       style="fill:#f48e5b;fill-opacity:1;fill-rule:nonzero;stroke:none;stroke-width:0.0462457"
       d="m -738.85246,-136.63702 c -6.60299,-3.7685 -11.31285,2.51892 -15.01206,10.48562 -3.69879,7.96672 -8.45325,23.04074 -10.0541,29.293589 -1.60127,6.24791 2.73792,10.0905 7.02042,10.3671 4.83499,0.30621 6.39601,-1.96081 8.49741,-6.70232 2.00874,-4.52911 4.29678,-10.426349 5.36545,-12.945269 1.52375,-3.59565 3.07697,-6.6875 5.6482,-11.93278 3.18567,-6.49982 5.69194,-14.4764 -1.46532,-18.56594" />
    <path
       id="path72"
       style="fill:#ffd3ab;fill-opacity:1;fill-rule:nonzero;stroke:none;stroke-width:0.0462457"
       d="m -739.7436,-135.05652 c -5.20652,-3.49687 -9.81549,2.51399 -12.95959,10.10039 -3.1441,7.58146 -7.3417,19.94887 -8.76589,25.885619 -1.42373,5.93674 1.96674,9.52745 5.3923,9.7349 3.86721,0.24201 5.16972,-1.92625 6.96023,-6.43561 1.71213,-4.311809 3.67887,-9.922569 4.59208,-12.318019 1.30207,-3.42277 2.61625,-6.36645 4.79517,-11.36478 2.69938,-6.18372 5.6287,-11.81423 -0.0144,-15.6025" />
    <path
       id="path74"
       style="fill:#f48e5b;fill-opacity:1;fill-rule:nonzero;stroke:none;stroke-width:0.0462457"
       d="m -761.44785,-21.665511 c 13.44024,-6.96903 16.46395,-55.46568 16.46395,-55.46568 0,0 1.73595,-15.88403 0.28925,-15.88898 -1.18256,10.59923 -8.04231,63.14098 -18.3415,70.23843 l 1.5883,1.11623" />
    <path
       id="path76"
       style="fill:#ffd3ab;fill-opacity:1;fill-rule:nonzero;stroke:none;stroke-width:0.0462457"
       d="m -749.81066,-151.50525 c 1.75185,-3.59128 2.79127,-12.17717 3.02627,-16.93844 0.20142,-4.07397 2.6486,-13.53064 3.34882,-16.1644 -0.0322,0.0894 -0.0496,0.14683 -0.0496,0.14683 0,0 6.70095,-29.84405 0.0506,-33.1427 -5.8701,-2.91115 -9.76822,4.87274 -11.32528,8.86353 -0.26242,0.67138 -0.46127,1.36819 -0.60754,2.08212 -0.69979,3.43557 -2.12645,10.64437 -2.23575,12.842 -0.23498,4.76128 -2.31074,14.44684 -2.02095,12.31215 -1.61639,6.27069 -5.51658,20.87815 -5.91113,23.86508 -0.72829,5.50667 -6.66264,27.13396 -7.8047,28.61292 0.52781,1.39609 3.43324,4.79593 8.01366,7.39 4.4777,2.53954 8.02953,2.6562 9.23543,2.53245 -0.0215,-1.26684 1.24722,-4.38818 2.28548,-9.35803 0.70087,-3.361 1.83358,-18.60964 3.99476,-23.04347" />
    <path
       id="path426"
       style="fill:#f48e5b;fill-opacity:1;fill-rule:nonzero;stroke:none;stroke-width:0.0462457"
       d="m -618.27138,-20.962644 h -2.07847 l -32.81358,-8.79155 -1.40729,-0.3803 -8.27486,1.34837 -22.51225,3.66973 c 0,0 8.56064,13.35522 14.42793,13.7701 5.86297,0.41982 20.89282,-4.17845 20.89282,-4.17845 0,0 4.41671,0.5186 9.41799,1.11129 l -0.026,0.006 c 0,0 20.03542,4.17846 20.03542,15.32591926 0,0.53341004 0.008,1.02238004 0.026,1.48667004 -0.21649,13.1082597 -0.49796,24.7150707 -0.49796,24.7150707 h 2.07846 c 0,0 2.55043,-28.9873704 0.73179,-48.0818" />
    <path
       id="path428"
       style="fill:#fcb788;fill-opacity:1;fill-rule:nonzero;stroke:none;stroke-width:0.0462457"
       d="m -685.35783,-25.116394 22.51225,-3.66973 c -12.31483,1.50148 -22.51225,3.66973 -22.51225,3.66973" />
    <path
       id="path430"
       style="fill:#fcc99f;fill-opacity:1;fill-rule:nonzero;stroke:none;stroke-width:0.0462457"
       d="m -620.60964,0.91739526 c 0,-11.14745926 -20.03543,-15.32590926 -20.03543,-15.32590926 l 0.026,-0.006 c -5.00127,-0.59268 -9.41799,-1.11128 -9.41799,-1.11128 0,0 -15.02983,4.59827 -20.89281,4.17844 -5.86729,-0.41487 -14.42793,-13.77011 -14.42793,-13.77011 0,0 4.52929,18.7881996 3.42945,27.5698593 -1.09985,8.7816497 -3.29955,24.6656707 -3.29955,24.6656707 h 2.07845 62.06786 c 0,0 0.28146,-11.606801 0.49796,-24.7150707 -0.0173,-0.46427 -0.026,-0.95323 -0.026,-1.48665004" />
    <path
       id="path432"
       style="fill:#fcb788;fill-opacity:1;fill-rule:nonzero;stroke:none;stroke-width:0.0462457"
       d="m -620.34985,-20.962644 c 0,-6.31212 -8.01935,-8.6977 -18.42028,-9.14715 -4.50333,-0.19263 -9.44832,-0.0247 -14.3933,0.3556 l 32.81358,8.79155" />
    <path
       id="path434"
       style="fill:#f48e5b;fill-opacity:1;fill-rule:nonzero;stroke:none;stroke-width:0.0462457"
       d="m -579.54284,-150.90941 c 0,0 7.14902,-17.92386 4.30413,-21.92944 -3.88411,-5.46755 -8.51301,0.14817 -9.71678,1.80275 -1.79699,3.9809 -6.66405,18.41777 -8.44371,21.69238 -1.83163,3.35856 -8.81612,17.96832 -9.81637,20.33412 -0.92232,2.18307 -8.13196,14.99993 -10.5395,17.74112 0.66684,1.08166 3.00076,4.48961 7.01045,6.3862 4.80644,2.27197 7.37418,2.21765 7.37418,2.21765 0,0 1.35534,-2.39546 3.57669,-6.32695 4.21752,-8.04573 8.11462,-16.76317 8.11462,-16.76317 2.66301,-6.3072 8.13629,-25.15466 8.13629,-25.15466" />
    <path
       id="path436"
       style="fill:#f48e5b;fill-opacity:1;fill-rule:nonzero;stroke:none;stroke-width:0.0462457"
       d="m -605.31134,-145.54559 c 2.04814,-3.3141 4.01401,-11.64136 4.79343,-16.30383 0.66251,-3.99077 4.03567,-12.9947 4.99696,-15.50375 -0.0434,0.0889 -0.0648,0.14325 -0.0648,0.14325 0,0 9.70813,-28.5478 3.93175,-32.6719 -5.62048,-4.01054 -10.53949,5.09217 -12.03771,8.27293 -0.84871,2.63745 -3.48143,10.93014 -3.88412,13.32558 -0.77509,4.66247 -3.83215,13.94298 -3.31253,11.87351 -2.23434,5.97133 -7.56039,19.86987 -8.27485,22.76416 -1.32069,5.33419 -8.30949,25.37691 -9.53925,26.68082 0.32476,1.45208 1.57183,5.68485 5.51224,8.84091 3.85379,3.09186 7.0451,3.48698 8.17957,3.52156 0.43736,-2.02996 2.19971,-6.72207 2.77995,-9.078 0.81839,-3.30918 4.39939,-17.77569 6.91952,-21.86524" />
    <path
       id="path438"
       style="fill:#f48e5b;fill-opacity:1;fill-rule:nonzero;stroke:none;stroke-width:0.0462457"
       d="m -662.40327,-173.27872 c -0.72339,-3.24357 -1.7136,-12.39045 -2.51089,-19.02721 -0.56401,-4.70222 -1.43514,-12.162 -1.8375,-18.03223 -1.66743,-9.94528 -4.966,-21.45512 -12.16624,-18.69324 -7.65922,2.94738 -2.33074,32.84115 -2.33074,32.84115 -0.0929,12.7095 1.47497,18.29809 0.58977,28.21509 -0.6839,7.67154 2.31146,15.95118 2.37167,20.17047 0.22519,15.42464 0.43672,20.40071 0.43672,20.40071 0,0 6.03729,2.012 11.32098,0.70137 4.77979,-1.18614 9.4733,-5.62234 10.322,-6.4558 -1.48544,-4.54645 -2.24997,-7.21927 -3.21195,-13.25967 -0.96042,-6.03069 -1.12418,-11.95034 -1.45535,-17.26305 -0.16848,-2.71599 -0.62159,-5.53364 -1.52847,-9.59759" />
    <path
       id="path440"
       style="fill:#fcc99f;fill-opacity:1;fill-rule:nonzero;stroke:none;stroke-width:0.0462457"
       d="m -629.94103,-17.989334 -49.91323,-7.22585 c -5.77204,-0.8347 -10.48753,-5.65523 -11.85152,-12.11058 l -8.71218,-41.25106 c -0.72747,-3.44252 -0.43301,-7.05792 0.84004,-10.28807 0,0 5.91927,-6.514618 13.61821,-27.841486 5.80667,-16.08655 12.09399,-20.06744 23.09249,-20.48231 l 41.37857,11.77966 c 4.86704,3.41291 22.59886,17.99302 21.04435,26.107888 l -14.04689,68.880178 c -2.26898,7.58147 -9.47428,12.87615 -15.44984,12.43163" />
    <path
       id="path442"
       style="fill:#f48e5b;fill-opacity:1;fill-rule:nonzero;stroke:none;stroke-width:0.0462457"
       d="m -694.66757,-96.579712 c 0,0 24.46947,5.37864 34.73184,25.446048 10.26236,20.07236 10.63044,39.30508 10.63044,39.30508 l -45.08516,-62.296418 -0.27712,-2.45471" />
    <path
       id="path444"
       style="fill:#ffd3ab;fill-opacity:1;fill-rule:nonzero;stroke:none;stroke-width:0.0462457"
       d="m -654.00781,-21.673874 c 0,0 12.39712,-38.5889 30.7265,-54.89275 18.32935,-16.303848 20.89278,-14.214618 20.89278,-14.214618 0,0 -6.27,61.876578 -17.79676,69.818598 -11.52676,7.94694 -33.82252,-0.71123 -33.82252,-0.71123" />
    <path
       id="path448"
       style="fill:#d68265;fill-opacity:1;fill-rule:nonzero;stroke:none;stroke-width:0.0462457"
       d="m -636.8482,-198.24726 c -0.005,-0.53363 -0.007,-0.85283 -0.007,-0.85283 0,0 -0.0215,0.20344 -0.0555,0.54388 -0.0239,0.91801 -0.0464,1.44626 -0.0464,1.44626 0,0 0.0261,-0.43397 0.10887,-1.13731" />
    <path
       id="path450"
       style="fill:#ffd3ab;fill-opacity:1;fill-rule:nonzero;stroke:none;stroke-width:0.0462457"
       d="m -632.91197,-153.1281 c 1.60407,-7.58576 1.44184,-14.08547 1.43566,-18.26461 -0.007,-4.18399 1.23814,-15.16936 1.44395,-17.70166 0.66656,-8.18961 1.45393,-16.85934 1.62697,-17.20855 0.68607,-6.57482 2.96737,-27.80073 -5.72541,-26.67928 -8.15067,1.04878 -10.30788,19.38677 -10.81537,25.8212 l 0.0575,0.70433 c 0,0 -1.31428,18.48856 -1.89488,23.86672 -0.72335,6.69106 -2.15426,10.69632 -2.8785,15.71449 -0.72423,5.01813 -0.94476,10.90408 -1.49995,14.90947 -0.76304,5.48926 -2.69751,17.09192 -3.74651,21.77104 1.26627,1.8062 5.10575,5.13521 9.46028,5.71927 5.20152,0.69898 7.80204,-0.76941 10.66232,-2.52689 0.45425,-5.00697 1.32317,-23.51929 1.87395,-26.12553" />
    <path
       id="path452"
       style="fill:#ffd3ab;fill-opacity:1;fill-rule:nonzero;stroke:none;stroke-width:0.0462457"
       d="m -664.43997,-173.99122 c -0.71411,-3.24046 -1.72211,-12.3887 -2.53218,-19.0228 -0.57253,-4.70046 -1.45646,-12.15758 -1.87585,-18.02426 -1.66322,-9.94618 -5.44017,-20.619 -10.92704,-17.65488 -7.02688,3.79524 -2.90957,31.66595 -2.90957,31.66595 -0.007,12.6967 1.53035,18.28662 0.74389,28.18817 -0.60719,7.65565 2.31922,15.94454 2.405,20.15854 0.31465,15.40611 0.54748,20.37776 0.54748,20.37776 0,0 5.81653,2.06277 10.8779,0.79318 4.58382,-1.14552 9.00742,-5.86717 9.8135,-6.6918 -1.45558,-4.55263 -2.1462,-6.8994 -3.10816,-12.9398 -0.96043,-6.0307 -1.15751,-11.93842 -1.50649,-17.25246 -0.17623,-2.70937 -0.63012,-5.53188 -1.52848,-9.5976" />
    <path
       id="path454"
       style="fill:#d68265;fill-opacity:1;fill-rule:nonzero;stroke:none;stroke-width:0.0462457"
       d="m -621.49952,-180.26994 c 0,0 -0.0137,0.26203 -0.0336,0.70994 0.0111,-0.0868 0.0244,-0.21393 0.0474,-0.37268 -0.007,-0.11871 -0.013,-0.2325 -0.0136,-0.33726" />
    <path
       id="path456"
       style="fill:#f48e5b;fill-opacity:1;fill-rule:nonzero;stroke:none;stroke-width:0.0462457"
       d="m -632.90974,-232.98617 c 7.24668,0.96864 5.1587,20.43348 4.50435,26.68325 -0.17304,0.34921 -0.96041,9.01894 -1.62697,17.20855 -0.20581,2.5323 -1.45078,13.51767 -1.44395,17.70166 0.006,4.17914 0.16841,10.67885 -1.43566,18.26461 -0.46143,2.18645 -2.25312,18.07472 -2.53251,25.77863 l -0.0173,0.76709 c 0.75027,-0.28808 1.52993,-0.98572 2.09784,-1.96178 0.26404,-8.12079 1.57096,-21.9335 2.00796,-24.0059 1.60409,-7.58576 1.44186,-14.08549 1.43568,-18.26461 -0.006,-4.17911 1.23877,-15.16448 1.44458,-17.69678 0.66591,-8.1945 1.45757,-16.86496 1.63061,-17.21418 1.03178,-7.74263 1.97728,-27.37175 -6.06451,-27.26054" />
    <path
       id="path458"
       style="fill:#ffd3ab;fill-opacity:1;fill-rule:nonzero;stroke:none;stroke-width:0.0462457"
       d="m -606.99143,-145.51594 c 2.04814,-3.31412 4.01401,-11.64632 4.79343,-16.30387 0.66251,-3.99074 4.03567,-12.99467 4.99696,-15.50371 -0.0434,0.0841 -0.0649,0.13832 -0.0649,0.13832 0,0 9.7081,-28.54778 3.93173,-32.6719 -5.62048,-4.00558 -10.5395,5.09712 -12.03771,8.27293 -0.84871,2.64239 -3.48574,10.93015 -3.88412,13.33053 -0.77509,4.66247 -3.83214,13.94298 -3.31253,11.87352 -2.23434,5.97132 -7.56039,19.86491 -8.27485,22.75921 -1.32068,5.33419 -9.35304,25.88068 -10.58714,27.18953 0.3291,1.44715 2.61974,5.17615 6.56013,8.33714 3.85381,3.08692 6.5558,3.43266 7.68596,3.46722 0.61919,-1.35824 1.73204,-4.25747 3.27356,-9.0286 1.04355,-3.21534 4.3994,-17.77076 6.91952,-21.8603" />
    <path
       id="path460"
       style="fill:#ffd3ab;fill-opacity:1;fill-rule:nonzero;stroke:none;stroke-width:0.0462457"
       d="m -581.04972,-152.9937 c 0,0 7.16634,-17.91399 4.20021,-21.97883 -4.03999,-5.54162 -8.7425,0.0444 -9.96358,1.68916 -1.80568,3.97595 -6.65973,18.41777 -8.45671,21.68251 -1.84897,3.35362 -8.88108,17.9436 -9.88134,20.30448 -0.92663,2.18307 -8.20988,14.96536 -10.65641,17.69173 0.69716,1.09153 3.13068,4.54887 7.26593,6.50473 4.96231,2.34112 7.43481,2.74613 7.43481,2.74613 0,0 1.53287,-2.81527 3.77585,-6.73194 4.25217,-8.03092 8.17093,-16.73848 8.17093,-16.73848 2.67168,-6.30226 8.11031,-25.16949 8.11031,-25.16949" />
    <path
       id="path462"
       style="fill:#f48e5b;fill-opacity:1;fill-rule:nonzero;stroke:none;stroke-width:0.0462457"
       d="m -601.00288,-104.31428 c 0,0 -0.6019,8.682868 -1.38565,13.533038 -1.18212,10.599218 -8.04101,63.140968 -18.34235,70.238408 l 1.58915,1.11624 c 13.44067,-6.96903 17.28149,-54.85818 17.28149,-54.85818 l 1.53718,-11.6957 1.28171,-17.834966 -1.96153,-0.49884" />
    <path
       id="path426-2"
       style="fill:#f48e5b;fill-opacity:1;fill-rule:nonzero;stroke:none;stroke-width:0.0462457"
       d="m -459.12788,-21.129707 h -2.07845 l -32.81359,-8.79154 -1.4073,-0.38029 -8.27483,1.34835 -22.51224,3.66973 c 0,0 8.56063,13.35523 14.42793,13.7701 5.86296,0.41982 20.89277,-4.17845 20.89277,-4.17845 0,0 4.41672,0.51861 9.41799,1.11129 l -0.026,0.006 c 0,0 20.03543,4.17845 20.03543,15.32591042 0,0.53340998 0.008,1.02237998 0.026,1.48665998 -0.2165,13.1082796 -0.49796,24.7150796 -0.49796,24.7150796 h 2.07845 c 0,0 2.55044,-28.9873696 0.73179,-48.08178" />
    <path
       id="path428-0"
       style="fill:#fcb788;fill-opacity:1;fill-rule:nonzero;stroke:none;stroke-width:0.0462457"
       d="m -526.21429,-25.283457 22.51224,-3.66973 c -12.31484,1.50147 -22.51224,3.66973 -22.51224,3.66973" />
    <path
       id="path430-0"
       style="fill:#fcc99f;fill-opacity:1;fill-rule:nonzero;stroke:none;stroke-width:0.0462457"
       d="m -461.46615,0.75033342 c 0,-11.14745042 -20.03542,-15.32590042 -20.03542,-15.32590042 l 0.026,-0.006 c -5.00128,-0.59268 -9.41799,-1.11129 -9.41799,-1.11129 0,0 -15.02982,4.59827 -20.89278,4.17845 -5.8673,-0.41488 -14.42794,-13.77012 -14.42794,-13.77012 0,0 4.5293,18.7882004 3.42945,27.5698604 -1.09984,8.7816696 -3.29954,24.6656796 -3.29954,24.6656796 h 2.07846 62.06782 c 0,0 0.28145,-11.6068 0.49795,-24.7150696 -0.0172,-0.46428 -0.026,-0.95324 -0.026,-1.48666998" />
    <path
       id="path432-1"
       style="fill:#fcb788;fill-opacity:1;fill-rule:nonzero;stroke:none;stroke-width:0.0462457"
       d="m -461.20633,-21.129707 c 0,-6.31212 -8.01937,-8.6977 -18.42029,-9.14715 -4.50332,-0.19262 -9.44832,-0.0247 -14.3933,0.35561 l 32.81359,8.79154" />
    <path
       id="path434-9"
       style="fill:#f48e5b;fill-opacity:1;fill-rule:nonzero;stroke:none;stroke-width:0.0462457"
       d="m -420.39936,-151.07646 c 0,0 7.14904,-17.92386 4.30415,-21.92944 -3.88411,-5.46754 -8.51302,0.14817 -9.71677,1.80276 -1.79701,3.98089 -6.66406,18.41776 -8.44372,21.69237 -1.83164,3.35856 -8.81612,17.9683 -9.81637,20.33411 -0.92232,2.18308 -8.13196,14.99995 -10.53949,17.74113 0.66683,1.08165 3.00077,4.48961 7.01044,6.38619 4.80643,2.27197 7.37418,2.21765 7.37418,2.21765 0,0 1.35534,-2.39545 3.57669,-6.32694 4.21752,-8.04573 8.11462,-16.76319 8.11462,-16.76319 2.66302,-6.30717 8.13627,-25.15464 8.13627,-25.15464" />
    <path
       id="path436-0"
       style="fill:#f48e5b;fill-opacity:1;fill-rule:nonzero;stroke:none;stroke-width:0.0462457"
       d="m -446.16785,-145.71263 c 2.04814,-3.31412 4.01401,-11.64138 4.79343,-16.30386 0.6625,-3.99076 4.03567,-12.99467 4.99696,-15.50371 -0.0434,0.0889 -0.0648,0.14323 -0.0648,0.14323 0,0 9.70811,-28.54779 3.93174,-32.6719 -5.62048,-4.01053 -10.53949,5.09217 -12.03771,8.27291 -0.8487,2.63749 -3.4814,10.93017 -3.8841,13.32561 -0.77509,4.66247 -3.83215,13.94298 -3.31254,11.87352 -2.23435,5.97131 -7.56038,19.86984 -8.27485,22.76412 -1.32068,5.3342 -8.30948,25.3769 -9.53923,26.68083 0.32474,1.45208 1.57182,5.68486 5.51222,8.84092 3.8538,3.09186 7.04509,3.48698 8.17959,3.52155 0.43734,-2.02994 2.1997,-6.72206 2.77993,-9.078 0.81839,-3.30916 4.3994,-17.77568 6.91951,-21.86522" />
    <path
       id="path438-4"
       style="fill:#f48e5b;fill-opacity:1;fill-rule:nonzero;stroke:none;stroke-width:0.0462457"
       d="m -491.82888,-173.73194 c -0.20352,-3.33881 0.25546,-12.54027 0.51095,-19.23271 0.18186,-4.74151 0.49362,-12.25876 1.01757,-18.11649 -0.0823,-10.12507 -1.52419,-22.12207 -9.04127,-20.87248 -7.9977,1.33848 -7.43912,31.8372 -7.43912,31.8372 -2.08279,12.48596 -1.41594,18.30417 -3.84081,27.88101 -1.87495,7.4086 -0.22517,16.16557 -0.82705,20.32918 -2.19537,15.2222 -2.76694,20.16126 -2.76694,20.16126 0,0 5.62481,3.2104 11.0288,2.99801 4.88868,-0.19262 10.20171,-3.60057 11.16734,-4.24758 -0.74911,-4.7761 -1.08254,-7.56171 -1.08254,-13.70097 0,-6.12937 0.76644,-11.98711 1.27307,-17.28177 0.25979,-2.70663 0.25546,-5.57128 0,-9.75466" />
    <path
       id="path440-8"
       style="fill:#fcc99f;fill-opacity:1;fill-rule:nonzero;stroke:none;stroke-width:0.0462457"
       d="m -470.79754,-18.156397 -49.91319,-7.22585 c -5.77204,-0.83469 -10.48753,-5.65522 -11.85152,-12.11058 l -8.71218,-41.25105 c -0.72746,-3.44253 -0.43301,-7.05792 0.84003,-10.28808 0,0 5.91928,-6.51461 13.6182,-27.841493 5.80669,-16.08652 12.09402,-20.06741 23.0925,-20.4823 l 41.37855,11.77968 c 4.86705,3.41288 22.59886,17.993 21.04434,26.107883 l -14.04688,68.88016 c -2.26897,7.58147 -9.47428,12.87615 -15.44985,12.43163" />
    <path
       id="path442-3"
       style="fill:#f48e5b;fill-opacity:1;fill-rule:nonzero;stroke:none;stroke-width:0.0462457"
       d="m -535.52404,-96.746757 c 0,0 24.46946,5.37863 34.73184,25.44604 10.26235,20.07235 10.63039,39.30507 10.63039,39.30507 l -45.08511,-62.2964 -0.27712,-2.45471" />
    <path
       id="path444-2"
       style="fill:#ffd3ab;fill-opacity:1;fill-rule:nonzero;stroke:none;stroke-width:0.0462457"
       d="m -494.8643,-21.840927 c 0,0 12.39712,-38.58891 30.72649,-54.89275 18.32937,-16.30385 20.89279,-14.21464 20.89279,-14.21464 0,0 -6.27,61.8766 -17.79676,69.81861 -11.52676,7.94694 -33.82252,-0.71122 -33.82252,-0.71122" />
    <path
       id="path446-2"
       style="fill:#ffd3ab;fill-opacity:1;fill-rule:nonzero;stroke:none;stroke-width:0.0462457"
       d="m -497.12895,-54.157217 c -12.33214,-26.19187 -23.08814,-34.28206 -40.27869,-43.62181 -0.013,-0.006 -0.026,-0.01 -0.0389,-0.0197 0.026,-2.765883 0.0303,-41.873393 -19.06116,-47.918803 -19.79296,-6.27261 -1.09985,16.30385 -1.09985,23.83099 0,7.52218 -3.50739,27.485883 3.19563,38.825963 0.12127,0.20745 0.24247,0.39512 0.36806,0.57788 0.30743,3.34374 1.10417,6.67761 2.30361,9.51263 4.76312,11.28576 16.85713,35.53655 16.85713,35.53655 11.73027,23.41611 29.75654,23.94954 37.75425,18.81291 5.8673,-3.76358 10.63041,-12.96011 0,-35.53656" />
    <path
       id="path448-4"
       style="fill:#d68265;fill-opacity:1;fill-rule:nonzero;stroke:none;stroke-width:0.0462457"
       d="m -466.46309,-197.57281 c 0.065,-0.52847 0.10394,-0.84458 0.10394,-0.84458 0,0 -0.0476,0.19756 -0.12558,0.52849 -0.14289,0.90385 -0.23383,1.42244 -0.23383,1.42244 0,0 0.0823,-0.42474 0.25548,-1.10635" />
    <path
       id="path450-0"
       style="fill:#ffd3ab;fill-opacity:1;fill-rule:nonzero;stroke:none;stroke-width:0.0462457"
       d="m -468.43329,-152.28652 c 2.57209,-7.2308 3.25625,-13.68616 3.79318,-17.82015 0.53694,-4.13893 3.19561,-14.79249 3.72823,-17.26203 1.72339,-7.98647 3.62864,-16.42732 3.84514,-16.74343 1.53285,-6.3862 6.54713,-26.99197 -2.19537,-27.35252 -8.1969,-0.3408 -12.71321,17.42995 -14.0512,23.70749 l -0.0346,0.7063 c 0,0 -3.70224,18.06215 -4.97531,23.28274 -1.58483,6.49488 -3.52038,10.21399 -4.88869,15.05427 -1.36832,4.84028 -2.35125,10.62392 -3.42079,14.49121 -1.46791,5.29961 -4.8887,16.44708 -6.53414,20.89717 1.01758,2.00032 4.38207,5.9417 8.6126,7.25549 5.05323,1.57061 7.81585,0.55811 10.87291,-0.69641 1.09984,-4.87485 4.36475,-23.03578 5.24809,-25.52013" />
    <path
       id="path452-8"
       style="fill:#ffd3ab;fill-opacity:1;fill-rule:nonzero;stroke:none;stroke-width:0.0462457"
       d="m -493.72115,-174.84817 c -0.19485,-3.33386 0.24682,-12.54029 0.48931,-19.23272 0.17319,-4.7415 0.47198,-12.25874 0.9786,-18.11648 -0.078,-10.12507 -2.12176,-21.39602 -7.98473,-19.59819 -7.50839,2.30158 -7.8245,30.56292 -7.8245,30.56292 -1.99618,12.49088 -1.35965,18.30416 -3.68492,27.88594 -1.797,7.4086 -0.21651,16.16061 -0.79241,20.32426 -2.10443,15.22219 -2.65437,20.16125 -2.65437,20.16125 0,0 5.39966,3.21533 10.57848,2.99801 4.68949,-0.19263 9.7817,-3.93644 10.70402,-4.58345 -0.7188,-4.77607 -1.03057,-7.22585 -1.03057,-13.36511 0,-6.12938 0.73179,-11.98217 1.22109,-17.28178 0.25115,-2.70167 0.24682,-5.57126 0,-9.75465" />
    <path
       id="path454-6"
       style="fill:#d68265;fill-opacity:1;fill-rule:nonzero;stroke:none;stroke-width:0.0462457"
       d="m -453.61997,-177.19916 c 0,0 -0.0476,0.25683 -0.12557,0.6964 0.0218,-0.0841 0.0519,-0.20743 0.0953,-0.36056 0.008,-0.11857 0.0173,-0.23213 0.0303,-0.33584" />
    <path
       id="path456-2"
       style="fill:#f48e5b;fill-opacity:1;fill-rule:nonzero;stroke:none;stroke-width:0.0462457"
       d="m -458.05401,-231.26215 c 7.04077,2.18306 2.44652,21.07993 0.98727,27.15002 -0.2165,0.31611 -2.12175,8.75696 -3.84514,16.74343 -0.53262,2.46954 -3.19129,13.1231 -3.72823,17.26203 -0.53693,4.13399 -1.22109,10.58935 -3.79318,17.82015 -0.74045,2.08428 -4.57694,17.49415 -5.85431,25.06574 l -0.11685,0.75568 c 0.77942,-0.15806 1.64111,-0.71617 2.3296,-1.58544 1.31634,-7.98647 4.40372,-21.42567 5.10521,-23.40129 2.57208,-7.23079 3.25623,-13.68615 3.79316,-17.82013 0.53695,-4.13401 3.19563,-14.78757 3.72823,-17.2571 1.72339,-7.9914 3.63296,-16.43226 3.84948,-16.74836 2.02649,-7.48267 5.51223,-26.73515 -2.45519,-27.98473" />
    <path
       id="path458-1"
       style="fill:#ffd3ab;fill-opacity:1;fill-rule:nonzero;stroke:none;stroke-width:0.0462457"
       d="m -447.84793,-145.68301 c 2.04814,-3.3141 4.01402,-11.6463 4.79345,-16.30383 0.66249,-3.99077 4.03565,-12.99469 4.99693,-15.50373 -0.0433,0.0841 -0.065,0.13832 -0.065,0.13832 0,0 9.70813,-28.54778 3.93174,-32.67189 -5.62048,-4.00558 -10.53948,5.0971 -12.03772,8.27292 -0.84869,2.64241 -3.48573,10.93015 -3.8841,13.33054 -0.77508,4.66247 -3.83215,13.94297 -3.31253,11.87351 -2.23434,5.97132 -7.56038,19.86491 -8.27486,22.75918 -1.32068,5.3342 -9.35305,25.88071 -10.58711,27.18956 0.32908,1.44715 2.6197,5.17614 6.56012,8.33715 3.85379,3.0869 6.55579,3.43265 7.68595,3.46722 0.6192,-1.35825 1.73205,-4.25748 3.27356,-9.02862 1.04356,-3.21533 4.39939,-17.77075 6.91953,-21.86028" />
    <path
       id="path460-8"
       style="fill:#ffd3ab;fill-opacity:1;fill-rule:nonzero;stroke:none;stroke-width:0.0462457"
       d="m -421.90622,-153.16074 c 0,0 7.16633,-17.91398 4.20019,-21.97884 -4.03997,-5.54163 -8.74248,0.0445 -9.96357,1.68916 -1.80566,3.97595 -6.65973,18.41777 -8.45671,21.68248 -1.84896,3.35363 -8.88107,17.94363 -9.88132,20.3045 -0.92665,2.18305 -8.2099,14.96536 -10.65641,17.69173 0.69714,1.09153 3.13066,4.54887 7.26593,6.50474 4.96231,2.34112 7.43479,2.74611 7.43479,2.74611 0,0 1.53288,-2.81526 3.77586,-6.73194 4.25218,-8.0309 8.17093,-16.73848 8.17093,-16.73848 2.67169,-6.30224 8.11031,-25.16946 8.11031,-25.16946" />
    <path
       id="path462-3"
       style="fill:#f48e5b;fill-opacity:1;fill-rule:nonzero;stroke:none;stroke-width:0.0462457"
       d="m -441.85939,-104.48133 c 0,0 -0.60188,8.682873 -1.38563,13.533013 -1.18211,10.59923 -8.04103,63.14099 -18.34236,70.23843 l 1.58915,1.11623 c 13.44068,-6.96902 17.28148,-54.85818 17.28148,-54.85818 l 1.53719,-11.6957 1.28171,-17.834963 -1.96154,-0.49883" />
    <path
       id="path464-0"
       style="fill:#f48e5b;fill-opacity:1;fill-rule:nonzero;stroke:none;stroke-width:0.0462457"
       d="m -454.94065,-123.24484 -3.10036,8.45074 c 0,0 1.56316,-0.5433 2.20834,-1.5163 0.64954,-0.97793 2.39023,-6.26272 2.39023,-6.26272 l -1.49821,-0.67172" />
    <path
       id="path120"
       style="fill:#f48e5b;fill-opacity:1;fill-rule:nonzero;stroke:none;stroke-width:0.0462457"
       d="m -293.74531,-44.518358 c 10.40836,-0.01 18.50166,2.03067 18.71327,8.3404 l -33.08472,-7.36036 -1.42005,-0.3155 -8.22186,1.70781 -22.3775,4.64613 c 0,0 9.00518,12.96848 14.88145,13.13148 5.8733,0.16661 20.73559,-5.08826 20.73559,-5.08826 0,0 4.43245,0.32736 9.45176,0.70251 l -0.0275,0.004 c 0,0 20.16526,3.30366 20.53885,14.44339 0.0146,0.52711 0.0402,1.01879 0.0712,1.48227 0.22495,13.10342962 0.32955,24.71972 0.32955,24.71972 l 2.0776,-0.087 c 0,0 1.57714,-29.08081 -0.87706,-48.08089 -0.84326,-6.50585 -9.79045,-8.42565 -20.79064,-8.24626" />
    <path
       id="path122"
       style="fill:#d68265;fill-opacity:1;fill-rule:nonzero;stroke:none;stroke-width:0.0462457"
       d="m -336.17354,14.601932 37.62707,-1.64175 z" />
    <path
       id="path124"
       style="fill:#f5bc8f;fill-opacity:1;fill-rule:nonzero;stroke:none;stroke-width:0.0462457"
       d="m -340.13617,-37.499878 22.3775,-4.64613 c -12.25859,2.03423 -22.3775,4.64613 -22.3775,4.64613" />
    <path
       id="path126"
       style="fill:#f5bc8f;fill-opacity:1;fill-rule:nonzero;stroke:none;stroke-width:0.0462457"
       d="m -275.03204,-36.177958 c -0.21161,-6.30973 -8.30491,-8.35068 -18.71327,-8.3404 -4.50715,0.004 -9.44586,0.38767 -14.37145,0.98004 l 33.08472,7.36036" />
    <path
       id="path128"
       style="fill:#fcc99f;fill-opacity:1;fill-rule:nonzero;stroke:none;stroke-width:0.0462457"
       d="m -274.55592,-14.306058 c -0.37359,-11.13974 -20.53887,-14.44339 -20.53887,-14.44339 l 0.0275,-0.004 c -5.0193,-0.37515 -9.45176,-0.70252 -9.45176,-0.70252 0,0 -14.86229,5.25488 -20.73559,5.08826 -5.87626,-0.16302 -14.88144,-13.13148 -14.88144,-13.13148 0,0 5.1579,18.57804 4.35678,27.39943 -0.80723,8.8216696 -2.4715,24.79652 -2.4715,24.79652 l 2.07736,-0.0941 37.62705,-1.64174 24.39126,-1.06425 v 0 c 0,0 -0.10457,-11.61629038 -0.32955,-24.71972 -0.0309,-0.46348 -0.0566,-0.95517 -0.0712,-1.48227" />
    <path
       id="path130"
       style="fill:#fcc99f;fill-opacity:1;fill-rule:nonzero;stroke:none;stroke-width:0.0462457"
       d="m -284.51528,-32.793438 -50.12004,-5.04781 c -5.79534,-0.58245 -10.67478,-5.19264 -12.24954,-11.58269 l -10.08692,-40.83932 c -0.84358,-3.40927 -0.66795,-7.03425 0.49354,-10.317812 0,0 5.6989,-6.77032 12.67319,-28.41159 5.2649,-16.33118 11.41593,-20.58387 22.38905,-21.47853 l 53.24042,13.21227 c 7.0336,2.14659 10.9221,16.31343 9.63663,24.4884 l -10.95733,66.876082 c -2.00992,7.67883 -9.03801,13.2804 -15.019,13.101" />
    <path
       id="path132"
       style="fill:#ffd3ab;fill-opacity:1;fill-rule:nonzero;stroke:none;stroke-width:0.0462457"
       d="m -308.74391,-35.468958 c 0,0 10.88991,-38.64402 28.65842,-55.73395 17.76831,-17.096932 20.39932,-15.118212 20.39932,-15.118212 0,0 -4.19244,62.107322 -15.44267,70.545812 -11.2532,8.44212 -33.61507,0.30635 -33.61507,0.30635" />
    <path
       id="path134"
       style="fill:#fcc99f;fill-opacity:1;fill-rule:nonzero;stroke:none;stroke-width:0.0462457"
       d="m -343.7542,-105.27432 c 0,0 22.90053,17.436932 29.76772,27.230852 6.87333,9.79365 9.65532,32.26396 9.65532,32.26396 0,0 15.82375,-41.27435 32.7752,-40.69987 l 2.95761,-15.052672 -19.06062,-17.601 c 0,0 -15.50751,-7.22207 -30.01676,-3.95727 -14.64905,3.29887 -26.07847,17.816 -26.07847,17.816" />
    <path
       id="path136"
       style="fill:#f48e5b;fill-opacity:1;fill-rule:nonzero;stroke:none;stroke-width:0.0462457"
       d="m -352.17388,-108.82485 c 0,0 24.97435,4.62815 35.90261,24.233592 10.92833,19.60543 11.94011,38.81175 11.94011,38.81175 l -47.14352,-60.286832 -0.6992,-2.75851" />
    <path
       id="path138"
       style="fill:#ffd3ab;fill-opacity:1;fill-rule:nonzero;stroke:none;stroke-width:0.0462457"
       d="m -349.199,-49.263558 c 0,0 -12.90111,-23.70289 -18.04015,-34.77449 -5.6179,-12.10271 -3.99276,-33.996382 13.49369,-25.417232 17.48668,8.58616 28.50922,16.199632 41.71107,41.836102 11.37954,22.09517 6.92704,31.49526 1.19098,35.51314 -7.82282,5.47549 -25.85264,5.72743 -38.35559,-17.15752" />
    <path
       id="path140"
       style="fill:#ffd3ab;fill-opacity:1;fill-rule:nonzero;stroke:none;stroke-width:0.0462457"
       d="m -352.17388,-108.82485 c 0,0 -22.92856,-32.63323 -41.65045,-22.97558 -18.7172,9.65318 8.3182,13.32077 12.54929,19.09595 4.22641,5.77963 12.74938,23.668842 24.26595,27.474252 11.52091,3.80584 4.83521,-23.594622 4.83521,-23.594622" />
    <path
       id="path142"
       style="fill:#d68265;fill-opacity:1;fill-rule:nonzero;stroke:none;stroke-width:0.0462457"
       d="m -294.12303,-135.36139 c 0.0182,0.18101 0.0446,0.32311 0.0752,0.41612 0.0546,0.16545 0.12214,0.16945 0.19721,0.0333 -0.14125,-0.28395 -0.21127,-0.45211 -0.21127,-0.45211 0,0 -0.0184,8.1e-4 -0.0612,0.003" />
    <path
       id="path144"
       style="fill:#d68265;fill-opacity:1;fill-rule:nonzero;stroke:none;stroke-width:0.0462457"
       d="m -277.71312,-127.1791 c 0.0101,0.82442 0.13136,1.17557 0.45564,0.70358 0.0877,-0.12264 0.17847,-0.34331 0.27605,-0.63065 -0.19728,-0.12769 -0.30416,-0.20689 -0.30416,-0.20689 0,0 -0.14817,0.0589 -0.42755,0.13398" />
    <path
       id="path146"
       style="fill:#f48e5b;fill-opacity:1;fill-rule:nonzero;stroke:none;stroke-width:0.0462457"
       d="m -273.67109,-32.417308 c 13.1981,-7.55188 15.32584,-57.85738 15.32584,-57.85738 l 1.37865,-10.695442 c 0,0 -2.6021,-5.50292 -3.02396,-5.56489 -0.82888,10.643492 -5.25012,63.460612 -15.30167,71.004502 l 1.62114,3.11321" />
    <path
       id="path148"
       style="fill:#d68265;fill-opacity:1;fill-rule:nonzero;stroke:none;stroke-width:0.0462457"
       d="m -258.44909,-120.78149 c 0,0 -0.35743,9.16901 -0.97531,14.04352 -0.39737,3.13487 2.22323,4.71211 2.22323,4.71211 l 0.68427,-17.8788 -1.93219,-0.87683" />
    <path
       id="path150"
       style="fill:#f48e5b;fill-opacity:1;fill-rule:nonzero;stroke:none;stroke-width:0.0462457"
       d="m -315.12457,-123.4917 c 0,0 -6.33067,24.751702 6.56967,27.509082 11.3665,2.42937 14.86529,-23.348612 15.76549,-27.022712 0.9805,-4.02009 5.90008,-20.68919 6.15047,-23.09069 0.58493,-5.58258 0.98724,-16.42766 -8.08509,-19.2472 -5.40328,-1.68299 -11.70282,2.52723 -14.31338,9.10687 -4.7329,11.91128 -3.90967,21.74873 -6.08716,32.74465" />
    <path
       id="path152"
       style="fill:#f48e5b;fill-opacity:1;fill-rule:nonzero;stroke:none;stroke-width:0.0462457"
       d="m -335.40679,-124.07116 c 0,0 -2.67545,19.72018 8.68442,21.85975 11.75448,2.213232 14.84679,-22.98432 15.51824,-26.71832 0.67438,-3.73761 6.06788,-24.45715 4.35299,-30.91447 -3.22929,-12.14402 -14.94089,-16.00177 -20.73808,-6.40669 -6.21828,10.28797 -6.77904,19.60565 -7.81757,42.17973" />
    <path
       id="path154"
       style="fill:#ffd3ab;fill-opacity:1;fill-rule:nonzero;stroke:none;stroke-width:0.0462457"
       d="m -333.25686,-130.95575 c 0,0 -3.93258,23.44129 5.41597,24.90323 9.34851,1.46193 9.49372,-13.3038 10.16516,-17.0378 0.67143,-3.73399 6.38474,-32.73313 5.75227,-39.44041 -0.6354,-6.70365 -12.40426,-9.43699 -16.2049,-0.88316 -4.73759,10.67423 -3.61773,21.31657 -5.1285,32.45814" />
    <path
       id="path156"
       style="fill:#f48e5b;fill-opacity:1;fill-rule:nonzero;stroke:none;stroke-width:0.0462457"
       d="m -260.30913,-137.32256 c 0,0 11.56632,1.89992 7.42977,23.64454 -4.13655,21.744632 -6.48695,23.839332 -6.48695,23.839332 l -7.14646,-28.993752 6.20364,-18.49012" />
    <path
       id="path158"
       style="fill:#f5bc8f;fill-opacity:1;fill-rule:nonzero;stroke:none;stroke-width:0.0462457"
       d="m -261.86013,-137.7966 c 0,0 10.14327,2.40935 6.45304,22.93572 -3.69631,20.526622 -6.09988,24.416592 -6.09988,24.416592 l -6.17357,-29.312312 5.82041,-18.04" />
    <path
       id="path160"
       style="fill:#f48e5b;fill-opacity:1;fill-rule:nonzero;stroke:none;stroke-width:0.0462457"
       d="m -290.77852,-131.01972 c 0,0 1.90909,-20.0048 9.99245,-24.10763 7.56826,-3.83919 14.71906,2.80735 15.62324,6.92693 1.21118,5.50772 0.27434,8.18033 -0.53199,14.65329 -0.75647,6.04092 -5.59688,6.79732 -6.22944,8.94988 -2.94256,10.01925 -3.25925,14.00688 -6.29777,22.90142 -1.38414,4.044702 -3.93498,12.222462 -11.44271,10.739622 -5.93152,-1.17065 -9.90263,-7.56798 -6.62464,-21.656072 2.27082,-9.76624 3.3992,-11.56996 5.51086,-18.40744" />
    <path
       id="path162"
       style="fill:#f48e5b;fill-opacity:1;fill-rule:nonzero;stroke:none;stroke-width:0.0462457"
       d="m -259.25208,-137.78109 c -7.37989,-2.33069 -11.33691,4.30071 -14.00376,12.30879 -2.66389,8.00445 -5.3861,22.76726 -6.13282,28.825222 -0.74375,6.05433 3.36348,10.66329 7.8327,10.1677 5.04619,-0.55917 7.27468,-4.73508 8.7578,-9.48308 1.41966,-4.539052 2.92724,-10.385562 3.66093,-12.902522 1.05623,-3.59001 2.21379,-6.71611 4.10747,-12.01328 2.34767,-6.56119 3.78018,-14.37211 -4.22232,-16.90283" />
    <path
       id="path164"
       style="fill:#ffd3ab;fill-opacity:1;fill-rule:nonzero;stroke:none;stroke-width:0.0462457"
       d="m -259.94549,-136.16409 c -5.89671,-2.32553 -9.78624,4.03382 -11.93498,11.5929 -2.14582,7.55545 -4.68562,19.71703 -5.29306,25.450872 -0.61038,5.73746 3.42142,8.46238 6.99299,8.0619 4.03862,-0.45231 5.06998,-2.68169 6.26488,-7.16199 1.1432,-4.285822 2.36121,-9.812132 2.95567,-12.186722 0.85154,-3.38885 1.77902,-6.34065 3.30585,-11.33872 1.89137,-6.18828 4.10214,-11.8977 -2.29135,-14.41824" />
    <path
       id="path166"
       style="fill:#ffd3ab;fill-opacity:1;fill-rule:nonzero;stroke:none;stroke-width:0.0462457"
       d="m -290.98625,-132.00674 c 0,0 5.01776,-22.14655 13.0573,-22.07444 6.46407,0.0569 9.05492,2.84827 10.22478,6.57534 1.72518,5.48527 -5.11396,17.81694 -6.15785,21.50078 -2.64249,9.37356 -1.78171,8.27002 -4.52076,16.5923 -1.24276,3.78339 -4.96632,15.549252 -10.50484,14.766872 -5.43382,-0.76598 -9.08427,-5.915592 -6.14029,-19.090892 2.04077,-9.13409 2.14188,-11.87509 4.04166,-18.26996" />
    <path
       id="path168"
       style="fill:#ffd3ab;fill-opacity:1;fill-rule:nonzero;stroke:none;stroke-width:0.0462457"
       d="m -313.35783,-125.81258 c 0,0 -5.33588,23.07613 3.90236,25.26984 9.23827,2.193682 10.55666,-13.58784 11.45391,-17.25829 0.89407,-3.67381 8.05442,-31.09695 7.82536,-37.83578 -0.22295,-6.73913 -10.29155,-12.67818 -16.10659,-2.15267 -5.59585,10.11754 -4.89754,20.98099 -7.07504,31.9769" />
    <path
       id="path286"
       style="fill:#f48e5b;fill-opacity:1;fill-rule:nonzero;stroke:none;stroke-width:0.0462457"
       d="m 73.734958,242.95983 c 0,0 4.5306,18.79314 3.43076,27.56985 -1.09943,8.78167 -3.29868,24.67064 -3.29868,24.67064 h 64.145442 c 0,0 2.5513,-28.98737 0.7331,-48.0818 -1.70217,-17.87447 -65.010622,-4.15869 -65.010622,-4.15869" />
    <path
       id="path288"
       style="fill:#fcc99f;fill-opacity:1;fill-rule:nonzero;stroke:none;stroke-width:0.0462457"
       d="m 71.657808,242.95983 c 0,0 4.53059,18.79314 3.43075,27.56985 -1.09943,8.78167 -3.29867,24.67064 -3.29867,24.67064 h 64.145452 c 0,0 0.73307,-30.10361 0.73307,-48.0818 0,-17.97818 -65.010602,-4.15869 -65.010602,-4.15869" />
    <path
       id="path290"
       style="fill:#f48e5b;fill-opacity:1;fill-rule:nonzero;stroke:none;stroke-width:0.0462457"
       d="m 116.37187,253.66773 c 0,0 20.03804,4.18338 20.03804,15.33085 0,7.86794 1.71038,8.08525 1.71038,8.08525 l -1.22193,-24.53233 -9.77439,-0.55317 -10.7521,1.6694" />
    <path
       id="path292"
       style="fill:#f48e5b;fill-opacity:1;fill-rule:nonzero;stroke:none;stroke-width:0.0462457"
       d="m 79.916198,250.19557 -14.68038,-29.17012 c 5.18141,-23.13951 -10.3624,-57.34252 6.04527,-70.42115 16.40722,-13.07865 19.48854,8.01609 19.48854,8.01609 0,0 2.96352,-24.1125 12.462532,-23.10495 9.49895,1.00264 13.83947,15.10367 13.83947,15.10367 0,0 6.88574,-10.0757 14.65786,-8.0655 7.77168,2.01514 7.86002,16.59031 7.86002,16.59031 0,0 7.30403,-2.58806 11.38734,6.74182 2.82841,6.4603 3.01202,24.55704 3.01202,24.55704 0,0 5.27018,48.24477 -7.1529,60.96284 -10.25632,10.50047 -23.03275,2.49918 -34.25901,3.50674 -11.22583,1.00758 -20.571092,2.32631 -32.660762,-4.71679" />
    <path
       id="path294"
       style="fill:#ffd3ab;fill-opacity:1;fill-rule:nonzero;stroke:none;stroke-width:0.0462457"
       d="m 78.159478,247.56798 -23.43284,-30.51847 c 4.01531,-26.89814 -1.50603,-51.46011 11.04308,-70.75702 12.00481,-18.45728 23.616,4.69705 23.616,4.69705 0,0 2.59071,-19.11418 12.089682,-18.10662 9.49898,1.00758 14.99174,14.28873 14.99174,14.28873 0,0 5.7335,-9.26075 13.50562,-7.24561 7.77168,2.01019 9.96143,16.45696 9.96143,16.45696 0,0 8.40778,-3.65491 12.49065,5.67497 2.82842,6.46031 -1.32242,26.19186 -1.32242,26.19186 0,0 4.44962,49.27703 -6.77663,58.33034 -11.22625,9.0533 -22.989,-1.02732 -34.21482,-0.0197 -11.226272,1.00758 -19.861822,8.04574 -31.951492,1.00758" />
    <path
       id="path296"
       style="fill:#fcc99f;fill-opacity:1;fill-rule:nonzero;stroke:none;stroke-width:0.0462457"
       d="m 74.051928,162.08267 c 0,0 1.75673,18.71411 3.0116,23.10001 1.25486,4.38588 7.27805,16.37298 10.79194,15.20243 3.51388,-1.17057 5.77247,-3.21534 5.77247,-3.21534 0,0 5.27061,6.13926 9.788242,6.72207 4.51761,0.58774 12.80024,-3.21532 12.80024,-3.21532 0,0 0.75301,4.96869 5.77248,5.26503 5.01946,0.2914 10.79193,-4.68224 10.79193,-4.68224 0,0 1.25487,3.51168 4.76876,3.51168 3.5139,0 9.78824,-7.89262 9.78824,-7.89262 l -7.88645,10.10039 c 0,0 -12.19187,4.5143 -19.34478,15.9186 -3.13499,4.99833 -7.15853,20.76877 -8.28265,23.68281 0,0 0.6911,-28.67127 -12.423102,-30.40488 -13.33762,-1.76326 -27.3568,-8.77178 -27.3568,-8.77178 0,0 -5.52132,-9.65093 -5.2706,-20.75888 0.25114,-11.11289 7.27848,-24.56196 7.27848,-24.56196" />
    <path
       id="path298"
       style="fill:#f48e5b;fill-opacity:1;fill-rule:nonzero;stroke:none;stroke-width:0.0462457"
       d="m 89.385718,150.98954 c 0,0 -0.49059,-1.03227 -1.83467,-3.09679 0.38451,3.2252 0.82533,5.34406 1.06176,8.3717 0.65643,8.41616 3.00032,16.38781 3.85986,24.71014 0.47976,4.64272 -0.53304,10.34734 -4.95279,11.89327 -4.06554,1.42245 -6.81127,-2.85479 -8.36665,-6.54427 -3.48963,-8.27787 -3.93607,-17.40524 -4.70121,-26.34989 -0.0615,-0.71618 -0.58585,-0.98783 -0.88203,0.1531 -2.37118,9.12739 -0.20828,20.39339 3.14583,28.85401 2.68294,6.76159 8.652,13.26632 14.80638,7.02335 0.91496,-0.92855 1.65021,-1.93117 2.2391,-2.99308 0.007,0.0543 0.0123,0.10375 0.0199,0.15805 0.51701,3.54625 2.45431,9.1916 5.11733,11.60186 2.688142,2.43002 7.495882,2.51399 10.541242,1.75337 2.63271,-0.65689 4.32752,-1.52617 5.88593,-3.54625 0.51441,2.33618 1.68396,4.39083 3.69315,5.59102 5.12123,3.05729 10.84822,-0.73098 14.11141,-5.51692 0.86775,2.79551 3.38745,4.68716 6.32109,3.92655 5.27321,-1.36319 8.55155,-9.63119 10.48277,-14.80732 0.4408,-1.18044 0.82966,-2.3905 1.19339,-3.60552 -0.016,-0.20743 -0.0251,-0.31609 -0.0251,-0.31609 0,0 4.15085,-19.73155 1.32241,-26.19186 -0.6179,-1.41256 -1.33583,-2.52385 -2.10746,-3.39807 1.25962,7.45799 1.0769,15.50371 -0.33819,22.63079 -0.93919,4.73162 -2.53398,9.30026 -4.69686,13.44907 -1.64025,3.14618 -7.82798,12.08095 -10.26021,4.85509 2.77214,-6.33187 2.81847,-13.83924 2.99212,-20.82308 0.13161,-5.29469 -0.46506,-10.03123 0.41395,-15.22715 0.40443,-2.39049 0.89114,-4.76123 1.53545,-7.17645 -0.0186,0.01 -0.0297,0.0148 -0.0297,0.0148 0,0 -0.23035,-1.51137 -0.8015,-3.62034 -3.59443,9.10762 -3.97634,20.44278 -4.42365,29.96036 -0.31652,6.73688 -1.1046,13.93804 -5.93745,18.43259 -1.9152,1.77806 -4.41757,2.9585 -6.90089,2.5535 -3.20168,-0.51861 -3.85251,-2.97332 -4.02441,-5.77871 0.86082,-2.88936 1.15094,-6.21828 0.88032,-8.94959 -0.62399,-6.29236 -1.49996,-12.51557 -1.88795,-18.84747 -0.46765,-7.64073 -0.5655,-15.35061 -0.31999,-23.04072 -0.0316,0.0494 -0.051,0.079 -0.051,0.079 0,0 -0.54775,-1.32367 -1.59521,-3.16594 -1.32371,12.807 -1.32761,25.70288 -0.0172,38.61854 0.4733,4.66741 2.23564,12.13528 -0.89719,16.0075 -2.55521,3.15605 -3.97894,3.22521 -7.5292,3.21532 -2.43309,-0.004 -5.01993,0 -7.529662,-3.21532 -1.3025,-1.66941 -1.72685,-4.85016 -2.07802,-7.05299 -0.6322,-3.971 -0.73957,-7.99634 -1.13838,-12.00192 -0.0286,-0.28152 -0.13943,-0.49391 -0.2819,-0.64207 -0.49449,-3.65491 -1.50255,-6.34177 -2.39975,-9.54227 l -3.61479,-18.40295" />
    <path
       id="path300"
       style="fill:#f48e5b;fill-opacity:1;fill-rule:nonzero;stroke:none;stroke-width:0.0462457"
       d="m 101.76812,177.71481 c -18.064372,-7.29994 -20.251512,-2.35101 -31.355652,12.72797 -5.17319,7.02828 -8.94991,10.10038 -11.36656,11.88831 -3.57494,2.64735 -5.63087,7.40861 -5.43558,12.37235 0.0945,2.39546 0.48238,4.94401 1.38607,7.36909 0.0848,1.49653 0.25807,3.11656 0.5378,4.87979 5.5958,35.28468 38.77269,34.81546 47.566742,29.63933 8.7936,-5.17613 15.63474,-18.46221 6.84072,-33.9857 -7.23043,-12.76748 -20.166662,-10.42142 -23.717352,-9.79417 2.88819,-5.6404 5.91882,-9.82378 9.66264,-10.38189 5.974712,-0.88411 11.128432,3.52154 17.568582,0.87914 11.45879,-4.70693 6.16695,-18.3832 -11.68741,-25.59422" />
    <path
       id="path302"
       style="fill:#ffd3ab;fill-opacity:1;fill-rule:nonzero;stroke:none;stroke-width:0.0462457"
       d="m 101.15715,179.62623 c -17.013462,-6.80604 -19.228752,-2.6424 -29.686832,11.41418 -4.87225,6.54919 -8.27398,9.86824 -10.54989,11.53763 -3.3671,2.4646 -5.30352,6.90482 -5.1195,11.53273 0.0883,2.22752 0.45423,4.6032 1.30511,6.87023 0.0802,1.39281 0.24334,2.90417 0.50661,4.54888 5.27062,32.88924 36.51715,32.45458 44.799802,27.62911 8.28221,-4.82545 12.79982,-16.66439 4.51762,-31.14079 -6.81042,-11.89819 -21.879222,-6.71713 -25.223372,-6.13926 2.72018,-5.25515 9.14824,-14.68383 12.67425,-15.20242 5.626982,-0.82483 12.005252,3.05234 18.070442,0.58279 10.79237,-4.38587 5.52176,-14.91102 -11.29424,-21.63308" />
    <path
       id="path304"
       style="fill:#f48e5b;fill-opacity:1;fill-rule:nonzero;stroke:none;stroke-width:0.0462457"
       d="m 62.879378,177.84322 c 6.29683,-2.36087 11.97015,-10.28312 11.49297,-18.12143 -0.0247,-0.39512 -0.48151,-0.89396 -0.63132,-0.27657 -0.86127,3.56599 -1.49779,6.87516 -3.31773,10.02135 -1.94207,3.35856 -4.56871,5.89723 -7.64352,7.82843 -0.17494,0.10863 -0.14202,0.63712 0.0995,0.54822 v 0" />
    <path
       id="path306"
       style="fill:#d68265;fill-opacity:1;fill-rule:nonzero;stroke:none;stroke-width:0.0462457"
       d="m 88.442188,197.2241 c 4.13094,3.42278 9.76787,7.13201 15.109962,6.15902 0.41179,-0.0741 0.47198,-1.04708 0.0666,-1.18537 -2.41103,-0.81 -4.945002,-0.95324 -7.364242,-1.80277 -2.61626,-0.92853 -5.29357,-2.10404 -7.63529,-3.73887 -0.26717,-0.18768 -0.36504,0.40994 -0.17711,0.56799 v 0" />
    <path
       id="path466"
       style="fill:#f48e5b;fill-opacity:1;fill-rule:nonzero;stroke:none;stroke-width:0.0462457"
       d="m 1079.7283,-368.99142 c -3.5098,-4.16581 -7.4384,-6.33087 -11.7685,-4.60848 -8.1657,3.25032 -9.5279,11.26565 -8.7687,17.30929 -1.6712,-3.07783 -2.4637,-4.51156 -5.0297,-5.57251 -8.0819,-3.36151 -14.942,3.82992 -16.0611,8.2777 -1.0868,4.31856 -0.807,7.33532 0.018,11.26797 -1.7872,-0.6396 -3.7101,-0.87095 -5.9013,0.34654 -3.7475,2.08907 -5.5249,5.81626 -5.6114,11.08447 -0.1139,6.63232 1.8187,10.74142 4.2838,17.48092 3.2718,8.95345 4.221,10.90713 5.6465,14.28222 l 2.1047,10.03813 c 0,0 3.6896,43.2626 17.0929,51.79947 -1.1731,19.88196 -0.037,49.1402 -0.037,49.1402 l 2.1598,-0.0756 64.4475,-2.29909 3.1123,-0.098 c 0,0 -3.688,-16.39332 -5.0825,-25.47005 -1.2667,-8.24978 2.0632,-25.25803 2.6797,-28.28602 3.1522,-3.39404 6.1346,-7.78691 8.7484,-13.40612 0,0 9.7824,-21.12227 15.0468,-33.91772 7.7241,-7.07347 12.2978,-16.63166 16.4109,-20.05822 7.5773,-6.32404 29.5786,-9.68795 11.5088,-22.64496 -14.8052,-10.6182 -32.9364,6.51154 -38.5939,13.63017 l -3.7807,3.59656 c -4.0988,-5.82662 -7.6558,-10.44084 -12.0667,-19.39216 -5.0763,-10.30402 -6.7614,-13.43092 -10.4743,-20.42759 -1.5527,-8.49004 -3.6758,-14.27923 -7.8465,-20.25238 -6.5759,-9.40416 -19.5612,-4.42485 -22.2377,8.25528" />
    <path
       id="path468"
       style="fill:#ffd3ab;fill-opacity:1;fill-rule:nonzero;stroke:none;stroke-width:0.0462457"
       d="m 1079.9391,-365.9681 c -3.3815,-4.00579 -8.3197,-5.9643 -12.482,-4.30514 -7.8606,3.12952 -7.9305,11.9394 -7.2016,17.75157 -1.6085,-2.96075 -3.6151,-5.428 -6.0808,-6.45673 -7.7851,-3.23018 -14.5151,3.96805 -15.167,8.14794 -0.6634,4.25919 -0.1847,6.78218 0.6115,10.56238 -1.7219,-0.61151 -3.6618,-0.59051 -5.8718,0.30139 -4.9618,2.00403 -5.5925,4.00976 -6.2104,9.58687 -0.4016,3.65034 0.2386,8.86685 1.9215,15.46176 2.289,8.96673 4.1364,14.36226 5.5118,17.61007 l 0.7672,4.80843 c 0,0 4.9072,45.45201 17.8066,53.66483 -0.01,0.10879 -0.014,0.21276 -0.016,0.31655 -0.1738,-0.0305 -0.2608,-0.0482 -0.2608,-0.0482 0,0 -0.03,3.85399 0.036,9.20257 0.01,3.62582 0.1157,7.33829 0.2722,10.95572 0.073,1.87058 0.1588,3.74579 0.2653,5.56126 0.106,1.79076 0.2508,3.80785 0.418,5.86888 0.6488,8.79789 1.3889,15.22236 1.3889,15.22236 l 2.0775,-0.0736 c 0,0 -0.02,-0.42929 -0.061,-1.20394 l 25.5113,-16.1773 22.6768,-14.85079 14.5945,-21.8235 v 0 c 3.0333,-3.26774 5.9061,-7.49502 8.4198,-12.90439 0,0 9.4156,-20.32812 14.4851,-32.64473 7.4343,-6.80975 13.0752,-17.71211 16.2637,-21.96163 4.2926,-5.71314 31.3672,-8.97921 12.7632,-18.91017 -15.7875,-8.42634 -34.9487,13.53935 -40.3943,20.39116 l -0.3151,-0.41742 c -3.9476,-5.60788 -9.6027,-13.67523 -13.8472,-22.28959 -4.8874,-9.91819 -6.5099,-12.93297 -10.0837,-19.66611 -1.4907,-8.17535 -3.5362,-13.74407 -7.5556,-19.49352 -6.3269,-9.05436 -17.6678,-4.39045 -20.2446,7.81308" />
    <path
       id="path470"
       style="fill:#fcc99f;fill-opacity:1;fill-rule:nonzero;stroke:none;stroke-width:0.0462457"
       d="m 1033.7474,-339.96669 c 2.21,-0.8919 4.1499,-0.9129 5.8718,-0.30139 -0.7962,-3.7802 -1.2749,-6.30319 -0.6115,-10.56238 0.6519,-4.17989 7.3819,-11.37812 15.167,-8.14794 2.4657,1.02873 4.4723,3.49598 6.0808,6.45673 -0.7289,-5.81217 -0.6633,-14.62196 7.2016,-17.75157 4.1623,-1.65916 9.1005,0.29935 12.482,4.30514 2.5768,-12.20352 13.9177,-16.86745 20.2446,-7.81309 4.0194,5.74945 6.0649,11.31817 7.5555,19.49352 0,0 -4.919,-8.32183 -12.5815,-7.17301 -7.6624,1.15375 -12.0554,9.20591 -12.0554,9.20591 0,0 -7.1085,-6.76349 -13.1406,-2.16043 -6.0277,4.60295 -6.6019,11.64132 -6.6019,11.64132 0,0 -6.3178,-5.91758 -13.116,-1.28659 -6.7982,4.63097 -5.1144,9.8377 -5.1144,9.8377 0,0 -3.2448,-6.02953 -8.5267,-2.32843 -5.2862,3.69627 -4.25,13.31496 -4.25,13.31496 l -4.916,-5.26888 c 0.01,-0.65728 0.037,-1.29522 0.1009,-1.8747 0.6179,-5.57711 1.2486,-7.58284 6.2103,-9.58687" />
    <path
       id="path472"
       style="fill:#fcc99f;fill-opacity:1;fill-rule:nonzero;stroke:none;stroke-width:0.0462457"
       d="m 1106.4968,-232.05474 c -5.8485,0.62688 -20.994,-3.43272 -20.994,-3.43272 0,0 -4.4011,0.67677 -9.3896,1.44639 l 0.031,0.004 c 0,0 -19.9165,4.89069 -19.6107,16.03333 0.014,0.52827 0.018,1.01228 0.018,1.47172 0.5751,13.09753 1.175,24.70255 1.175,24.70255 l 62.041,-2.21273 2.0732,-0.0786 c 0,0 -2.6336,-15.80067 -3.9741,-24.53779 -1.218,-7.93973 1.9894,-24.3078 2.5819,-27.22654 -0.1869,0.202 -0.3696,0.39898 -0.5566,0.59112 -2.0472,3.19014 -8.5271,12.71917 -13.3944,13.23894" />
    <path
       d="m -835.9877,-37.001261 c 0,0 -12.09833,-24.24587 -16.86146,-35.53655 -5.20911,-12.33779 -2.8492,-34.143759 14.33702,-24.80894 17.18622,9.33979 27.94655,17.42997 40.2787,43.62181 10.63045,22.57645 5.86299,31.77793 0,35.54151 -8.00204,5.13168 -26.02397,4.59827 -37.75426,-18.81783"
       style="fill:#ffd3ab;fill-opacity:1;fill-rule:nonzero;stroke:none;stroke-width:0.0462457"
       id="path336-3" />
    <path
       d="m -833.79232,-81.912171 c 0,0 41.78127,-16.66934 32.80927,-43.567489 -7.30492,-21.89981 -16.4068,1.75831 -22.04461,6.727 -5.22212,4.60322 -21.512,12.38718 -27.79501,24.038429 -6.28298,11.65126 17.03035,12.80206 17.03035,12.80206"
       style="fill:#f48e5b;fill-opacity:1;fill-rule:nonzero;stroke:none;stroke-width:0.0462457"
       id="path350-4" />
    <path
       d="m -834.09111,-84.436021 c 0,0 33.67962,-16.521189 30.50132,-39.670579 -3.17831,-23.14938 -13.47097,5.59596 -19.48118,8.70758 -6.00587,3.11159 -23.39126,7.71975 -29.67427,19.371009 -6.28298,11.65125 18.65413,11.59199 18.65413,11.59199"
       style="fill:#ffd3ab;fill-opacity:1;fill-rule:nonzero;stroke:none;stroke-width:0.0462457"
       id="path352-6" />
    <path
       id="path336-3-2"
       style="fill:#ffd3ab;fill-opacity:1;fill-rule:nonzero;stroke:none;stroke-width:0.0462457"
       d="m -693.03945,-34.836414 c 0,0 -12.09833,-24.24587 -16.86147,-35.53656 -5.2091,-12.33777 -2.8492,-34.143756 14.33702,-24.808928 17.18623,9.339788 27.94654,17.429978 40.27872,43.621818 10.63044,22.57645 5.86299,31.77793 0,35.5415 -8.00206,5.13169 -26.02398,4.59827 -37.75427,-18.81783" />
    <path
       id="path350-4-6"
       style="fill:#f48e5b;fill-opacity:1;fill-rule:nonzero;stroke:none;stroke-width:0.0462457"
       d="m -690.84408,-79.747324 c 0,0 41.78128,-16.669328 32.80927,-43.567476 -7.30491,-21.89982 -16.40679,1.75831 -22.0446,6.72699 -5.22212,4.60322 -21.512,12.38719 -27.795,24.038438 -6.283,11.651248 17.03033,12.802048 17.03033,12.802048" />
    <path
       id="path352-6-9"
       style="fill:#ffd3ab;fill-opacity:1;fill-rule:nonzero;stroke:none;stroke-width:0.0462457"
       d="m -691.14286,-82.271184 c 0,0 33.67963,-16.521168 30.50133,-39.670566 -3.17831,-23.14938 -13.47098,5.59597 -19.48119,8.70756 -6.00587,3.11162 -23.39125,7.71978 -29.67427,19.371028 -6.28298,11.651238 18.65413,11.591978 18.65413,11.591978" />
  </g>
</svg>
