<?xml version="1.0" encoding="UTF-8"?>
<svg width="210mm" height="297mm" version="1.1" viewBox="0 0 210 297" xmlns="http://www.w3.org/2000/svg" xmlns:cc="http://creativecommons.org/ns#" xmlns:dc="http://purl.org/dc/elements/1.1/" xmlns:rdf="http://www.w3.org/1999/02/22-rdf-syntax-ns#">
 <metadata>
  <rdf:RDF>
   <cc:Work rdf:about="">
    <dc:format>image/svg+xml</dc:format>
    <dc:type rdf:resource="http://purl.org/dc/dcmitype/StillImage"/>
    <dc:title/>
   </cc:Work>
  </rdf:RDF>
 </metadata>
 <g>
  <path d="m-1030.8-9.611h-2.0785l-32.809-8.7915-1.4116-0.3803-8.2749 1.3484-22.512 3.6697s8.5606 13.355 14.428 13.77c5.863 0.41983 20.893-4.1784 20.893-4.1784s4.4167 0.5186 9.418 1.1113l-0.026 6e-3s20.04 4.1784 20.04 15.326c0 0.53343 0.01 1.0224 0.022 1.4867-0.2165 13.108-0.4979 24.715-0.4979 24.715h2.0784s2.5505-28.987 0.7318-48.082" fill="#f48e5b"/>
  <path d="m-1097.8-13.765 22.512-3.6697c-12.315 1.5015-22.512 3.6697-22.512 3.6697" fill="#f5bc8f"/>
  <path d="m-1033.1 12.269c0-11.147-20.04-15.326-20.04-15.326l0.026-6e-3c-5.0013-0.59269-9.418-1.1113-9.418-1.1113s-15.03 4.5983-20.893 4.1785c-5.8673-0.41488-14.428-13.77-14.428-13.77s4.5293 18.788 3.4294 27.57c-1.0998 8.7817-3.2995 24.666-3.2995 24.666h64.146s0.2814-11.607 0.4979-24.715c-0.013-0.46427-0.022-0.95324-0.022-1.4866" fill="#fcc99f"/>
  <path d="m-1063.5-162.21c-0.2035-3.3388 0.2555-12.54 0.5109-19.233 0.1819-4.7415 0.4937-12.259 1.0176-18.116-0.078-10.125-1.5242-22.122-9.0412-20.872-7.9978 1.3385-7.4392 31.837-7.4392 31.837-2.0828 12.486-1.4159 18.304-3.8408 27.881-1.8706 7.4086-0.2252 16.166-0.827 20.329-2.1954 15.222-2.767 20.161-2.767 20.161s5.6292 3.2104 11.029 2.998c4.8887-0.19263 10.202-3.6006 11.167-4.2476-0.7492-4.7761-1.0826-7.5617-1.0826-13.701 0-6.1294 0.7665-11.987 1.2731-17.282 0.2641-2.7066 0.2555-5.5712 0-9.7546" fill="#f48e5b"/>
  <path d="m-1065.4-163.33c-0.1948-3.3339 0.2468-12.54 0.4893-19.233 0.1732-4.7415 0.472-12.259 0.9786-18.116-0.078-10.125-2.1217-21.396-7.9847-19.598-7.5084 2.3016-7.8245 30.563-7.8245 30.563-1.9962 12.491-1.3597 18.304-3.6806 27.886-1.797 7.4086-0.2208 16.161-0.7967 20.324-2.1045 15.222-2.6544 20.161-2.6544 20.161s5.3997 3.2153 10.578 2.998c4.6895-0.19262 9.786-3.6006 10.708-4.2476-0.7145-4.7761-1.0349-7.5617-1.0349-13.701 0-6.1294 0.7318-11.982 1.2211-17.282 0.2512-2.7017 0.2468-5.5713 0-9.7546" fill="#ffd3ab"/>
  <path d="m-1042.9-6.7118-41.682-6.0355c-10.423-1.5064-18.94-10.209-21.4-21.855l-6.8892-32.623c-0.4243-2.0053-0.4979-4.0747-0.2381-6.0899 0.2814-2.1485 1.1388-4.1389 2.3253-5.833 2.1304-3.0474 6.7809-10.723 12.371-26.207 5.4732-15.153 11.371-19.564 21.23-20.374 1.1865-0.0988 2.3816 0.0444 3.5377 0.3803l51.078 15.035c6.9585 2.4498 10.371 16.778 8.8118 24.893l-13.025 65.517c-0.1125 0.55318-0.2425 1.1064-0.4243 1.6299-2.4422 6.9443-9.024 11.775-14.675 11.656-0.3421-6e-3 -0.6841-0.0444-1.0219-0.0938" fill="#fcc99f"/>
  <path d="m-1107.5-85.564s24.803 5.7145 35.065 25.782c10.262 20.072 10.63 39.305 10.63 39.305l-45.085-62.296-0.6105-2.7906" fill="#f48e5b"/>
  <path d="m-1106.5-25.915s-12.098-24.251-16.861-35.537c-5.2092-12.343-2.8536-34.144 14.333-24.809 17.191 9.3398 27.947 17.43 40.283 43.622 10.626 22.576 5.8629 31.773 0 35.537-8.0021 5.1366-26.028 4.6032-37.754-18.813" fill="#ffd3ab"/>
  <path d="m-1104.3-70.826s41.786-16.669 32.814-43.567c-7.3049-21.9-16.407 1.7534-22.045 6.727-5.2221 4.5983-21.512 12.387-27.795 24.038-6.283 11.651 17.026 12.802 17.026 12.802" fill="#f48e5b"/>
  <path d="m-1066.5-10.263s12.436-38.648 30.761-54.952c18.329-16.304 20.893-14.215 20.893-14.215s-6.27 61.877-17.797 69.819c-11.527 7.947-33.857-0.65196-33.857-0.65196" fill="#ffd3ab"/>
  <path d="m-1104.6-73.35s33.68-16.521 30.501-39.675c-3.174-23.149-13.471 5.6009-19.477 8.7125-6.0058 3.1116-23.391 7.7198-29.674 19.371-6.283 11.651 18.65 11.592 18.65 11.592" fill="#ffd3ab"/>
  <path d="m-1048.6-109.55c0.013 0.17781 0.035 0.32104 0.065 0.41489 0.048 0.16792 0.1125 0.17781 0.1948 0.0445-0.1342-0.29141-0.1948-0.45934-0.1948-0.45934h-0.065" fill="#d68265"/>
  <path d="m-1032.5-100.66c-0.017 0.82484 0.095 1.1854 0.4373 0.72606 0.087-0.1235 0.1862-0.34082 0.2945-0.62234-0.1905-0.13328-0.2945-0.21733-0.2945-0.21733s-0.1515 0.0543-0.4373 0.11354" fill="#d68265"/>
  <g fill="#f48e5b">
   <path d="m-1013.4-93.422s-0.6625 9.1422-1.4463 13.992c-1.1821 10.599-8.041 63.141-18.342 70.238l1.5891 1.1162c13.441-6.969 17.282-54.858 17.282-54.858l1.5372-11.696 1.2817-17.835-1.9009-0.95816"/>
   <path d="m-1070.4-105.98s-9.9722 23.698 2.5981 28.913c11.081 4.5933 18.355-20.67 19.793-24.192 1.5718-3.8574 8.946-19.692 9.5436-22.058 1.3986-5.5071 1.3943-17.267-5.3261-20.892-5.1615-2.7807-12.142 0.33092-15.727 6.4553-6.4909 11.078-7.0928 21.129-10.882 31.773"/>
   <path d="m-1045.2-111.31s3.2606-19.01 11.852-22.858c8.041-3.6006 15.281 3.5413 16.086 7.8037 1.0696 5.6997 0 8.3964-1.0738 15-1.0003 6.159-6.0839 6.7171-6.82 8.8953-3.4251 10.14-3.8927 14.215-7.3828 23.199-1.5848 4.0846-4.538 12.358-12.328 10.5-6.1618-1.4669-10.085-8.2087-6.1705-22.502 2.7194-9.9127 3.3948-13.123 5.837-20.038"/>
   <path d="m-1011-116.73c-7.4391-2.7066-12.388 8.0408-15.381 16.077-2.9877 8.0408-4.6029 20.408-5.5685 26.543-0.9656 6.1343 3.0614 11.014 7.6297 10.708 5.1615-0.34078 7.5733-4.5044 9.2448-9.2706 1.6021-4.5588 3.3342-10.451 4.1742-12.98 1.1951-3.6055 2.3859-7.4185 4.001-12.95 2.308-7.8976 3.9621-15.198-4.1006-18.126"/>
  </g>
  <g fill="#ffd3ab">
   <path d="m-1011.5-114.39c-5.9279-2.6276-9.3876 4.5736-11.834 12.175-2.4466 7.6062-5.4517 19.88-6.2657 25.693-0.8141 5.8133 3.1999 8.7668 6.8546 8.5199 4.1265-0.28646 5.2524-2.509 6.625-7.0184 1.3077-4.3118 2.7366-9.888 3.4251-12.279 0.9786-3.4178 2.0265-6.3813 3.7542-11.399 2.1348-6.2232 3.8625-12.842-2.5591-15.691"/>
   <path d="m-1043.3-111.12s6.5125-22.137 14.346-21.263c6.296 0.70133 8.6126 3.813 9.483 7.7444 1.2773 5.7787-6.2917 17.702-7.5734 21.366-3.2649 9.3151-2.3426 8.2729-5.6205 16.511-1.4939 3.7389-5.9799 15.395-11.323 14.047-5.2351-1.3286-8.4178-6.9591-4.5856-20.132 2.6587-9.1373 2.9531-11.928 5.274-18.275"/>
   <path d="m-1068.3-107.98s-8.7252 22.196 0.2468 26.152c8.972 3.9513 12.596-11.666 14.03-15.193 1.4376-3.5216 12.627-29.748 13.38-36.564 0.7535-6.8208-8.5043-14.699-15.887-5.2156-7.1013 9.1175-7.9804 20.171-11.769 30.82"/>
  </g>
  <path d="m-895.55-16.547h-2.0784l-32.814-8.7965-1.4073-0.38031-30.791 5.0181s8.7512 12.051 14.428 13.775c6.1011 1.8472 20.681-2.677 20.681-2.677s6.4519 0.12837 12.622 0.40501c5.5945 1.6694 17.022 6.1146 17.022 14.536 0 0.52848 8e-3 1.0224 0.0218 1.4817-0.21218 13.108-0.49362 24.72-0.49362 24.72h2.0741s2.5504-28.992 0.73612-48.082" fill="#f48e5b"/>
  <path d="m-962.64-20.706 22.517-3.6697c-12.319 1.5015-22.517 3.6697-22.517 3.6697" fill="#f5bc8f"/>
  <path d="m-897.89 5.3326c0-8.4211-11.427-12.866-17.022-14.536-6.1704-0.2766-12.622-0.40501-12.622-0.40501s-14.58 4.5242-20.681 2.677c-5.6768-1.7238-14.428-13.775-14.428-13.775s4.5336 18.793 3.4338 27.57c-1.0998 8.7817-3.2995 24.671-3.2995 24.671h64.146s0.28146-11.612 0.49362-24.72c-0.013-0.45933-0.0218-0.95324-0.0218-1.4817" fill="#fcc99f"/>
  <path d="m-880.28-91.819s-1.9356-20.527-2.2127-30.632c-0.22516-8.2384-19.044 15.879-19.044 15.879s10.189 16.017 21.257 14.753" fill="#f5bc8f"/>
  <path d="m-932.02-170c-0.41137-3.3092-0.53693-12.53-0.70148-19.223-0.12127-4.7464-1.823-12.269-1.6628-18.151-0.72311-10.095-2.9185-21.944-10.336-20.077-7.8938 1.9855-3.8798 32.361-3.8798 32.361-1.286 12.629-0.2598 18.373-2.0698 28.128-1.403 7.542 0.79241 16.141 0.45466 20.339-1.2341 15.365-1.4939 20.339-1.4939 20.339s5.8197 2.7412 11.193 2.0892c4.8627-0.59763 9.9463-4.4304 10.869-5.1564-1.0479-4.702-1.5545-7.453-1.9399-13.573-0.38537-6.1195 8e-3 -12.022 0.18187-17.341 0.091-2.7214-0.0995-5.5812-0.61488-9.7349" fill="#f48e5b"/>
  <path d="m-907.86-13.87-49.913-7.2259c-5.772-0.83471-10.492-5.6552-11.856-12.111l-8.7079-41.251c-0.72746-3.4376-0.43301-7.0579 0.83572-10.283 0 0 5.9236-6.5196 13.618-27.842 5.811-16.091 12.098-20.072 23.092-20.487l43.609 26.207c14.272 10.308 18.221 15.277 16.662 23.391l-11.895 57.17c-2.2646 7.5815-9.4743 12.876-15.446 12.432" fill="#fcc99f"/>
  <path d="m-972.29-92.5s24.803 5.7145 35.07 25.782c10.262 20.067 10.626 39.3 10.626 39.3l-45.085-62.296-0.61055-2.7856" fill="#d68265"/>
  <path d="m-931.07-17.708s12.176-38.139 30.506-54.448c18.325-16.304 19.208-14.457 19.208-14.457s-4.5899 62.119-16.117 70.066c-11.522 7.942-33.597-1.1607-33.597-1.1607" fill="#ffd3ab"/>
  <path d="m-913.38-116.49c0.013 0.18274 0.0346 0.32599 0.0606 0.41983 0.0476 0.16793 0.11697 0.17287 0.19918 0.0445-0.13422-0.29635-0.19918-0.46428-0.19918-0.46428h-0.0606" fill="#d68265"/>
  <path d="m-905.54-146.89c2.5418-7.2456 3.1956-13.706 3.7152-17.845 0.51961-4.1389 3.1307-14.807 3.6503-17.277 1.6887-8.0013 3.5637-16.452 3.7758-16.768 1.5069-6.3961 6.4259-27.027-2.3166-27.343-8.1969-0.2914-12.635 17.504-13.943 23.791l-0.0346 0.70628s-3.6243 18.082-4.8757 23.312c-1.5545 6.5048-3.4728 10.229-4.8194 15.079-1.351 4.8452-2.3036 10.634-3.3602 14.511-1.4419 5.3046-4.8151 16.477-6.4389 20.937 1.0262 1.9904 4.4037 5.917 8.6429 7.2061 5.0576 1.536 7.8202 0.51366 10.869-0.76062 1.0782-4.8847 4.2652-23.065 5.1355-25.55" fill="#ffd3ab"/>
  <path d="m-933.98-170.95c-0.40705-3.3141-0.5456-12.53-0.72315-19.223-0.12556-4.7464-1.8403-12.269-1.706-18.151-0.71447-10.09-3.4598-21.169-9.1972-18.897-7.3439 2.914-5.8803 31.126-5.8803 31.126-1.2038 12.619 1.3337 18.373-0.37673 28.113-1.3293 7.537 0.80108 16.141 0.4893 20.339-1.1431 15.356-1.3813 20.329-1.3813 20.329s5.5858 2.7609 10.739 2.1238c4.6678-0.57786 9.5349-4.3958 10.418-5.1169-1.0176-4.702-1.5112-7.453-1.8966-13.577-0.3854-6.1146-0.026-12.012 0.1299-17.336 0.0779-2.7214-0.10827-5.5812-0.61487-9.73" fill="#ffd3ab"/>
  <g fill="#f48e5b">
   <path d="m-895.51-225.93c7.0494 2.1436 2.5418 21.07 1.1085 27.145-0.21217 0.3161-2.0871 8.7668-3.7758 16.768-0.51962 2.4695-3.1307 13.138-3.6503 17.277-0.51962 4.1389-1.1735 10.599-3.7152 17.845-0.73179 2.0892-4.7198 18.61-5.9669 26.187l-0.091 0.43465c0.77509-0.16793 1.5935-0.51861 2.3253-0.94832 1.2817-7.9963 4.512-22.868 5.2048-24.848 2.5374-7.2407 3.1956-13.701 3.7152-17.84 0.51961-4.1389 3.1263-14.807 3.6503-17.277 1.6888-8.0013 3.5594-16.457 3.7759-16.773 1.9918-7.4926 5.3953-26.765-2.5807-27.97"/>
   <path d="m-896.8-14.132c13.441-6.969 16.104-56.453 16.104-56.453s4.1526-26.775-0.65384-16.027c-1.1821 10.594-6.3609 63.383-16.658 70.485l1.2081 1.9954"/>
   <path d="m-969.89-89.873s24.803 5.7145 35.065 25.787c10.267 20.067 10.63 39.3 10.63 39.3l-45.085-62.296-0.61055-2.7906"/>
  </g>
  <path d="m-968.91-30.224s-12.098-24.246-16.861-35.537c-5.2091-12.338-2.8492-34.144 14.337-24.809 17.186 9.3398 27.947 17.43 40.279 43.622 10.63 22.576 5.863 31.778 0 35.542-8.002 5.1317-26.024 4.5983-37.754-18.818" fill="#ffd3ab"/>
  <g fill="#d68265">
   <path d="m-901.53-106.26c0.24249 0 0.23382-0.62727-0.0173-0.62727-0.24247 0-0.23382 0.62727 0.0173 0.62727"/>
   <path d="m-903.22-106.57c3e-3 0.14816 8e-3 0.2914 8e-3 0.43956 8e-3 0.29141 0.26846 0.28154 0.27279-0.01 5e-3 -0.14322 8e-3 -0.29141 0.013-0.43463 8e-3 -0.31611-0.30311-0.31116-0.29445 6e-3"/>
   <path d="m-900.38-108.82c0.25982 0.0248 0.51529 0.0889 0.77078 0.11858 0.38537 0.0494 0.38103-1.052-0.0218-1.0026-0.25549 0.0297-0.50664 0.0938-0.7621 0.11858-0.30312 0.0247-0.28579 0.74086 0.013 0.76556"/>
  </g>
  <path d="m-899.8-108.11c2.4076 0.90878 3.6243 3.1264 5.3 5.107 1.6888 2.0003 3.5204 2.8054 5.7504 3.808 6.6467 2.9881 7.0191 9.8831 7.7682 17.084 0.0823 0.75074 1.4506 1.0273 1.5112 0.28646 0.49794-6.2677-0.472-14.106-5.8976-17.548-2.702-1.7188-5.7201-2.3806-8.0367-4.786-1.9572-2.0349-3.581-4.5044-6.1921-5.4429-0.62354-0.22718-0.74044 1.2842-0.20352 1.4916" fill="#f48e5b"/>
  <path d="m-881.93-113.45s-2.7583 4.129-7.0971 6.4257c-4.3301 2.2967-12.609 4.1291-12.609 4.1291s-3.1523 9.1817-13.397 13.77c-10.245 4.5884-10.34-8.352-8.6689-10.555 2.3945-3.161 5.2654-10.999 5.1225-10.555 0 0 0-0.91867-4.7285 1.373-4.7285 2.2967-7.4305 5.0872-10.245 6.4257-13.034 6.2084-13.562-10.525-9.3271-14.224 2.6284-2.2967 7.4218-9.7201 10.769-12.086 4.3388-3.0622 8.015-3.5216 13.532-7.6506s7.4868-13.311 17.338-8.2581c9.8553 5.0477 4.3344 18.813 4.3344 18.813s3.5507-3.6697 8.6732-2.2917c5.1225 1.3731 6.3046 7.3394 6.3046 14.684" fill="#f48e5b"/>
  <path d="m-882.31-116.66s-2.6933 3.9463-6.9195 6.1393c-4.2305 2.1929-12.306 3.9463-12.306 3.9463s-3.0744 8.7718-13.073 13.158c-9.9982 4.3859-10.089-7.9815-8.4567-10.086 2.3383-3.0227 5.1355-10.51 4.997-10.086 0 0 0-0.87916-4.6159 1.3138-4.6116 2.1929-7.2486 4.86-9.9939 6.1392-12.718 5.9368-13.233-10.061-9.1019-13.592 2.5634-2.1929 6.322-9.7843 9.5912-12.046 4.2305-2.9239 8.7382-2.8646 14.12-6.8159 5.3823-3.9463 7.3049-12.718 16.918-7.8926 9.6128 4.8255 5.6465 16.447 5.6465 16.447s2.0438-1.9756 7.0408-0.6569c4.997 1.3138 6.1531 7.0135 6.1531 14.032" fill="#ffd3ab"/>
  <path d="m-966.71-75.135s41.781-16.669 32.809-43.567c-7.3049-21.9-16.407 1.7583-22.045 6.727-5.2221 4.6032-21.512 12.387-27.795 24.038-6.283 11.651 17.03 12.802 17.03 12.802" fill="#f48e5b"/>
  <path d="m-967.01-77.658s33.68-16.521 30.501-39.671c-3.1783-23.149-13.471 5.596-19.481 8.7076-6.0059 3.1116-23.391 7.7198-29.674 19.371-6.283 11.651 18.654 11.592 18.654 11.592" fill="#ffd3ab"/>
  <g fill="#d68265">
   <path d="m-919.68-110.71c0.75342-1.3138 1.3683-2.7165 2.0655-4.0698 0.65385-1.2693 1.4376-2.4893 1.9399-3.8475 0.14291-0.38029-0.19052-1.7188-0.66684-1.1014-0.90067 1.1607-1.4852 2.7116-2.0741 4.1044-0.61488 1.4521-1.2168 2.9091-1.6238 4.455-0.0606 0.23706 0.13423 0.84953 0.35941 0.45933"/>
   <path d="m-915.94-118.56c0.80539-0.20746 1.299-1.1113 0.98293-2.0349-0.0953-0.28152-0.29445-0.44946-0.55425-0.37042-0.25547 0.0741-0.2728 0.41981-0.46765 0.47414-0.38537 0.0988-0.55859 0.54824-0.53694 0.97793 0.013 0.28648 0.18187 1.057 0.57591 0.95326"/>
   <path d="m-915.02-119.44c0.0606-0.0394 0.11686-0.079 0.17322-0.12348 0.22516-0.16299 0.32042-0.41982 0.33774-0.72111 0.013-0.26177-0.0346-0.6964-0.25547-0.84951-0.0519-0.0394-0.10394-0.0741-0.15589-0.11354-0.4893-0.34575-0.80107 0.2272-0.83138 0.74579-0.013 0.28647 0.026 0.58775 0.17754 0.82482 0.10827 0.17781 0.35507 0.38526 0.55424 0.23708"/>
   <path d="m-880.97-76.592c0.12556 0 0.11697-0.31116-3e-3 -0.31116-0.12128 0-0.11697 0.31116 3e-3 0.31116"/>
  </g>
  <g fill="#f48e5b">
   <path d="m-937.39-123.93c1.4073-1.0767 2.0611-2.6523 2.9834-4.2328 1.5545-2.6523 3.5507-3.9117 6.1877-4.6921 4.1872-1.2397 7.647-2.3362 11.15-5.3836 3.4814-3.0326 6.9412-7.0629 11.574-7.3938 6.8979-0.49392 11.808 7.132 10.007 14.511-0.23382 0.95818 0.77943 2.4498 1.1128 1.0767 1.2731-5.2749 0.26847-11.182-3.555-14.783-4.2608-4.0204-9.6821-3.4524-14.099-0.16794-2.1131 1.5706-3.988 3.5067-6.0015 5.2354-2.6414 2.267-5.2654 3.5215-8.4697 4.3562-2.3296 0.60749-4.8108 1.1557-6.6987 2.9536-2.0222 1.9262-3.0614 5.023-4.5856 7.4234-0.16888 0.26671-0.0389 1.4274 0.39403 1.0965"/>
   <path d="m-881.14-104.2c-0.42436-7.5024 1.2038-16.146-1.7667-23.189-2.243-5.3243-7.66-5.9071-12.098-4.1241-3.3602 1.3484-6.3046 3.7438-9.6345 5.1811-2.715 1.1706-5.5339 1.867-8.1926 3.1412-0.3161 0.13834-0.6322 0.28153-0.93531 0.43958-0.29444 0.14817-0.56724 0.32598-0.82705 0.52354-0.0866 0.0543-0.16886 0.0938-0.25547 0.14818-0.0779 0.0543-0.1429 0.13328-0.19919 0.22719-0.34208 0.31116-0.64518 0.66679-0.92232 1.052-1.1172 1.2051-1.8273 2.9289-2.4465 4.5933-1.4896 4.0155-3.2259 7.8087-4.8454 11.75-1.5242 3.724-3.3298 13.518 1.9356 14.886 0.49363 0.12839 0.54993-0.77542 0.34207-1.0965-1.6324-2.509-2.8189-4.781-2.4075-8.0507 0.42434-3.3487 2.178-6.3022 3.516-9.2509 1.8966-4.1636 2.8232-8.6384 5.43-12.254 2.3513-1.5114 4.8757-2.3263 7.4435-3.2104 2.8146-0.96806 5.339-2.3362 7.9414-3.892 4.5899-2.7362 12.523-6.0059 15.359 1.378 2.3946 6.2331 1.2038 14.012 1.3164 20.621 0.0564 3.1659 0.35938 6.3418 0.93529 9.4435 0.74046 4.0253 1.6628 7.9025 0.41569 11.948-0.24682 0.80013 0.61488 3.0524 1.1648 1.7435 2.9921-7.1271-0.85303-14.733-1.2687-22.008"/>
   <path d="m-748.03-151.77c1.7514-3.5912 2.7913-12.177 3.0263-16.938 0.20142-4.074 2.6486-13.531 3.3488-16.164-0.0321 0.0895-0.0496 0.14683-0.0496 0.14683s6.3012-28.196-0.45259-32.346c-6.487-3.9852-10.036 5.7691-11.225 9.1475-0.56769 2.7586-2.3196 11.395-2.441 13.844-0.23458 4.7612-2.3103 14.447-2.0205 12.312-1.6164 6.2707-5.5166 20.878-5.9115 23.865-0.72787 5.5066-5.616 26.486-6.759 27.96 0.52881 1.4009 2.388 5.4487 6.968 8.0429 4.4786 2.5394 7.9157 2.4888 9.1211 2.3601 0.20996-2.088 1.4869-7.0135 1.8082-9.4467 0.45123-3.4137 2.4252-18.349 4.5868-22.782"/>
   <path d="m-742.94-137.61s10.607 3.0968 5.9903 25.234c-4.6168 22.132-7.3885 23.401-7.3885 23.401l-5.3758-29.303 6.774-19.331"/>
   <path d="m-807.77-176.63c-0.91473-3.18-2.4489-12.229-3.641-18.788-0.84438-4.6472-2.1584-12.022-2.9073-17.848-2.2563-9.793-6.2369-21.019-13.253-17.706-7.4678 3.5354-0.36985 32.947-0.36985 32.947 0.66782 12.687 2.5623 18.141 2.2734 28.103-0.22398 7.7066 3.2561 15.735 3.569 19.94 1.1432 15.372 1.6493 20.32 1.6493 20.32s6.1471 1.5379 11.338-0.17895c4.698-1.5542 9.1174-6.3447 9.9123-7.2414-1.7527-4.4208-2.6728-7.0287-3.9927-12.98-1.3178-5.9422-1.8368-11.835-2.481-17.11-0.3292-2.6969-0.95057-5.4725-2.0973-9.4568"/>
  </g>
  <path d="m-827.11-27.355s4.5306 18.788 3.4312 27.57c-1.0994 8.7817-3.2991 24.666-3.2991 24.666h64.146s0.73308-30.104 0.73308-48.082c0-17.973-65.011-4.1538-65.011-4.1538" fill="#fcc99f"/>
  <path d="m-744.11-138.03-5.3555 16.042c-0.89721-0.87419-1.8819-1.536-2.9518-1.9114l-52.756-15.523c-10.996 0.41487-17.284 4.3958-23.092 20.482-7.6972 21.327-13.618 27.841-13.618 27.841-1.2705 3.2302-1.5658 6.8455-0.83917 10.288l8.7118 41.251c1.3627 6.4554 6.0812 11.276 11.854 12.111l49.913 7.2258c5.9717 0.44451 13.181-4.8502 15.446-12.432l12.003-60.38 8e-3 0.0445s1.9117-0.30621 6.066-21.208c4.1543-20.907-5.3892-23.831-5.3892-23.831" fill="#fcc99f"/>
  <path d="m-760.27-23.202-2.1473-0.95818c0.0428 0.31117 0.0702 0.62727 0.0702 0.95818l-32.372-8.673-0.44081-0.11858-1.4095-0.38029-30.788 5.0181s1.202 1.8719 3.0142 4.2426c3.0237 3.9463 7.7457 9.2706 11.413 9.5274 5.8647 0.41982 20.893-4.1784 20.893-4.1784s4.4171 0.5186 9.4214 1.1113l-0.0277 6e-3s20.038 4.1784 20.038 15.326c0 0.53342 8e-3 1.0224 0.0225 1.4867-0.21391 13.108-0.49709 24.715-0.49709 24.715h2.0772s2.5513-28.987 0.73352-48.082" fill="#f48e5b"/>
  <path d="m-827.35-27.355 22.515-3.6697c-12.317 1.5015-22.515 3.6697-22.515 3.6697" fill="#f5bc8f"/>
  <path d="m-836.95-98.819s24.443 5.3786 34.706 25.446c10.263 20.072 10.63 39.305 10.63 39.305l-45.085-62.296-0.25115-2.4547" fill="#f48e5b"/>
  <path d="m-796.34-23.933s12.427-38.569 30.755-54.873c18.327-16.304 20.893-14.215 20.893-14.215s-6.2717 61.877-17.798 69.819c-11.526 7.947-33.85-0.73098-33.85-0.73098" fill="#ffd3ab"/>
  <path d="m-782.19-200.81c-0.021-0.53292-0.033-0.85176-0.033-0.85176s-0.0151 0.20402-0.0412 0.54593c3e-3 0.91823-5e-3 1.4471-5e-3 1.4471s0.0149-0.43501 0.0787-1.1413" fill="#d68265"/>
  <path d="m-776.96-155.87c1.3852-7.6413 1.0374-14.132 0.91204-18.308-0.12659-4.1815 0.80195-15.207 0.93515-17.746 0.43218-8.2102 0.97479-16.905 1.1365-17.261 0.49876-6.5971 2.1674-27.896-6.4874-26.452-8.1159 1.3517-9.7457 19.76-10.068 26.21l0.0754 0.70226s-0.78517 18.528-1.2128 23.925c-0.53142 6.7144-1.8439 10.77-2.4258 15.813-0.58146 5.0427-0.62997 10.933-1.0723 14.957-0.60381 5.5144-2.2059 17.183-3.1196 21.899 1.3177 1.758 5.2475 4.9429 9.6155 5.3646 5.2192 0.50477 7.7801-1.0605 10.586-2.923 0.31068-5.0212 0.64919-23.556 1.1255-26.181" fill="#ffd3ab"/>
  <path d="m-809.84-177.18c-0.90569-3.1775-2.4594-12.226-3.6611-18.782-0.85193-4.645-2.1776-12.017-2.9476-17.837-2.2533-9.7938-6.655-20.15-11.952-16.767-6.7851 4.3319-1.0174 31.819-1.0174 31.819 0.75117 12.668 2.6185 18.125 2.4261 28.064-0.14927 7.685 3.2642 15.728 3.6011 19.925 1.2301 15.347 1.7593 20.289 1.7593 20.289s5.9252 1.607 10.9-0.0528c4.5045-1.4984 8.6966-6.5442 9.4548-7.4253-1.7233-4.4293-2.6148-6.7295-3.9348-12.681-1.3178-5.9422-1.8655-11.821-2.531-17.096-0.33906-2.6889-0.96107-5.4694-2.0973-9.4568" fill="#ffd3ab"/>
  <path d="m-772.18-184.37s0.0247 0.26069 0.0693 0.70608c-2e-3 -0.0872-5e-3 -0.21608-6e-3 -0.37649-0.0231-0.11607-0.045-0.22735-0.0632-0.32959" fill="#d68265"/>
  <path d="m-779.25-235.68c7.2692 0.69848 5.7405 20.231 5.2671 26.501-0.16167 0.35519-0.70428 9.0504-1.1365 17.261-0.1332 2.5386-1.0617 13.564-0.93515 17.746 0.1254 4.1768 0.47318 10.667-0.91204 18.308-0.40029 2.2028-1.7514 18.323-1.8118 26.039l3e-3 0.60192c0.74644-0.38716 1.6307-0.94379 2.1843-2.0237 0.0324-8.1265 0.82033-22.01 1.1986-24.098 1.3856-7.6414 1.0374-14.132 0.91203-18.308-0.12581-4.1766 0.80273-15.202 0.93595-17.741 0.43096-8.2149 0.97356-16.91 1.1357-17.265 0.81129-7.7773 1.1944-27.431-6.8412-27.02" fill="#f48e5b"/>
  <path d="m-738.85-136.64c-6.603-3.7685-11.313 2.5189-15.012 10.486-3.6988 7.9667-8.4532 23.041-10.054 29.294-1.6013 6.2479 2.7379 10.09 7.0204 10.367 4.835 0.30621 6.396-1.9608 8.4974-6.7023 2.0087-4.5291 4.2968-10.426 5.3654-12.945 1.5238-3.5956 3.077-6.6875 5.6482-11.933 3.1857-6.4998 5.6919-14.476-1.4653-18.566" fill="#f48e5b"/>
  <path d="m-739.74-135.06c-5.2065-3.4969-9.8155 2.514-12.96 10.1-3.1441 7.5815-7.3417 19.949-8.7659 25.886-1.4237 5.9367 1.9667 9.5274 5.3923 9.7349 3.8672 0.24201 5.1697-1.9262 6.9602-6.4356 1.7121-4.3118 3.6789-9.9226 4.5921-12.318 1.3021-3.4228 2.6162-6.3664 4.7952-11.365 2.6994-6.1837 5.6287-11.814-0.0144-15.602" fill="#ffd3ab"/>
  <path d="m-761.45-21.666c13.44-6.969 16.464-55.466 16.464-55.466s1.736-15.884 0.28925-15.889c-1.1826 10.599-8.0423 63.141-18.342 70.238l1.5883 1.1162" fill="#f48e5b"/>
  <path d="m-749.81-151.51c1.7518-3.5913 2.7913-12.177 3.0263-16.938 0.20142-4.074 2.6486-13.531 3.3488-16.164-0.0322 0.0894-0.0496 0.14683-0.0496 0.14683s6.701-29.844 0.0506-33.143c-5.8701-2.9112-9.7682 4.8727-11.325 8.8635-0.26242 0.67138-0.46127 1.3682-0.60754 2.0821-0.69979 3.4356-2.1264 10.644-2.2358 12.842-0.23498 4.7613-2.3107 14.447-2.021 12.312-1.6164 6.2707-5.5166 20.878-5.9111 23.865-0.72829 5.5067-6.6626 27.134-7.8047 28.613 0.52781 1.3961 3.4332 4.7959 8.0137 7.39 4.4777 2.5395 8.0295 2.6562 9.2354 2.5324-0.0215-1.2668 1.2472-4.3882 2.2855-9.358 0.70087-3.361 1.8336-18.61 3.9948-23.043" fill="#ffd3ab"/>
  <path d="m-618.27-20.963h-2.0785l-32.814-8.7916-1.4073-0.3803-8.2749 1.3484-22.512 3.6697s8.5606 13.355 14.428 13.77c5.863 0.41982 20.893-4.1784 20.893-4.1784s4.4167 0.5186 9.418 1.1113l-0.026 6e-3s20.035 4.1785 20.035 15.326c0 0.53341 8e-3 1.0224 0.026 1.4867-0.21649 13.108-0.49796 24.715-0.49796 24.715h2.0785s2.5504-28.987 0.73179-48.082" fill="#f48e5b"/>
  <path d="m-685.36-25.116 22.512-3.6697c-12.315 1.5015-22.512 3.6697-22.512 3.6697" fill="#fcb788"/>
  <path d="m-620.61 0.9174c0-11.147-20.035-15.326-20.035-15.326l0.026-6e-3c-5.0013-0.59268-9.418-1.1113-9.418-1.1113s-15.03 4.5983-20.893 4.1784c-5.8673-0.41487-14.428-13.77-14.428-13.77s4.5293 18.788 3.4294 27.57c-1.0998 8.7816-3.2996 24.666-3.2996 24.666h64.146s0.28146-11.607 0.49796-24.715c-0.0173-0.46427-0.026-0.95323-0.026-1.4867" fill="#fcc99f"/>
  <path d="m-620.35-20.963c0-6.3121-8.0194-8.6977-18.42-9.1472-4.5033-0.19263-9.4483-0.0247-14.393 0.3556l32.814 8.7916" fill="#fcb788"/>
  <g fill="#f48e5b">
   <path d="m-579.54-150.91s7.149-17.924 4.3041-21.929c-3.8841-5.4676-8.513 0.14817-9.7168 1.8028-1.797 3.9809-6.664 18.418-8.4437 21.692-1.8316 3.3586-8.8161 17.968-9.8164 20.334-0.92232 2.1831-8.132 15-10.54 17.741 0.66684 1.0817 3.0008 4.4896 7.0104 6.3862 4.8064 2.272 7.3742 2.2176 7.3742 2.2176s1.3553-2.3955 3.5767-6.327c4.2175-8.0457 8.1146-16.763 8.1146-16.763 2.663-6.3072 8.1363-25.155 8.1363-25.155"/>
   <path d="m-605.31-145.55c2.0481-3.3141 4.014-11.641 4.7934-16.304 0.66251-3.9908 4.0357-12.995 4.997-15.504-0.0434 0.0889-0.0648 0.14325-0.0648 0.14325s9.7081-28.548 3.9318-32.672c-5.6205-4.0105-10.539 5.0922-12.038 8.2729-0.84871 2.6374-3.4814 10.93-3.8841 13.326-0.77509 4.6625-3.8322 13.943-3.3125 11.874-2.2343 5.9713-7.5604 19.87-8.2748 22.764-1.3207 5.3342-8.3095 25.377-9.5392 26.681 0.32476 1.4521 1.5718 5.6848 5.5122 8.8409 3.8538 3.0919 7.0451 3.487 8.1796 3.5216 0.43736-2.03 2.1997-6.7221 2.78-9.078 0.81839-3.3092 4.3994-17.776 6.9195-21.865"/>
   <path d="m-662.4-173.28c-0.72339-3.2436-1.7136-12.39-2.5109-19.027-0.56401-4.7022-1.4351-12.162-1.8375-18.032-1.6674-9.9453-4.966-21.455-12.166-18.693-7.6592 2.9474-2.3307 32.841-2.3307 32.841-0.0929 12.71 1.475 18.298 0.58977 28.215-0.6839 7.6715 2.3115 15.951 2.3717 20.17 0.22519 15.425 0.43672 20.401 0.43672 20.401s6.0373 2.012 11.321 0.70137c4.7798-1.1861 9.4733-5.6223 10.322-6.4558-1.4854-4.5464-2.25-7.2193-3.212-13.26-0.96042-6.0307-1.1242-11.95-1.4554-17.263-0.16848-2.716-0.62159-5.5336-1.5285-9.5976"/>
  </g>
  <path d="m-629.94-17.989-49.913-7.2258c-5.772-0.8347-10.488-5.6552-11.852-12.111l-8.7122-41.251c-0.72747-3.4425-0.43301-7.0579 0.84004-10.288 0 0 5.9193-6.5146 13.618-27.841 5.8067-16.087 12.094-20.067 23.092-20.482l41.379 11.78c4.867 3.4129 22.599 17.993 21.044 26.108l-14.047 68.88c-2.269 7.5815-9.4743 12.876-15.45 12.432" fill="#fcc99f"/>
  <path d="m-694.67-96.58s24.469 5.3786 34.732 25.446c10.262 20.072 10.63 39.305 10.63 39.305l-45.085-62.296-0.27712-2.4547" fill="#f48e5b"/>
  <path d="m-654.01-21.674s12.397-38.589 30.726-54.893c18.329-16.304 20.893-14.215 20.893-14.215s-6.27 61.877-17.797 69.819c-11.527 7.9469-33.823-0.71123-33.823-0.71123" fill="#ffd3ab"/>
  <path d="m-636.85-198.25c-5e-3 -0.53363-7e-3 -0.85283-7e-3 -0.85283s-0.0215 0.20344-0.0555 0.54388c-0.0239 0.91801-0.0464 1.4463-0.0464 1.4463s0.0261-0.43397 0.10887-1.1373" fill="#d68265"/>
  <path d="m-632.91-153.13c1.6041-7.5858 1.4418-14.085 1.4357-18.265-7e-3 -4.184 1.2381-15.169 1.444-17.702 0.66656-8.1896 1.4539-16.859 1.627-17.209 0.68607-6.5748 2.9674-27.801-5.7254-26.679-8.1507 1.0488-10.308 19.387-10.815 25.821l0.0575 0.70433s-1.3143 18.489-1.8949 23.867c-0.72335 6.6911-2.1543 10.696-2.8785 15.714-0.72423 5.0181-0.94476 10.904-1.5 14.909-0.76304 5.4893-2.6975 17.092-3.7465 21.771 1.2663 1.8062 5.1058 5.1352 9.4603 5.7193 5.2015 0.69898 7.802-0.76941 10.662-2.5269 0.45425-5.007 1.3232-23.519 1.874-26.126" fill="#ffd3ab"/>
  <path d="m-664.44-173.99c-0.71411-3.2405-1.7221-12.389-2.5322-19.023-0.57253-4.7005-1.4565-12.158-1.8758-18.024-1.6632-9.9462-5.4402-20.619-10.927-17.655-7.0269 3.7952-2.9096 31.666-2.9096 31.666-7e-3 12.697 1.5304 18.287 0.74389 28.188-0.60719 7.6556 2.3192 15.945 2.405 20.159 0.31465 15.406 0.54748 20.378 0.54748 20.378s5.8165 2.0628 10.878 0.79318c4.5838-1.1455 9.0074-5.8672 9.8135-6.6918-1.4556-4.5526-2.1462-6.8994-3.1082-12.94-0.96043-6.0307-1.1575-11.938-1.5065-17.252-0.17623-2.7094-0.63012-5.5319-1.5285-9.5976" fill="#ffd3ab"/>
  <path d="m-621.5-180.27s-0.0137 0.26203-0.0336 0.70994c0.0111-0.0868 0.0244-0.21393 0.0474-0.37268-7e-3 -0.11871-0.013-0.2325-0.0136-0.33726" fill="#d68265"/>
  <path d="m-632.91-232.99c7.2467 0.96864 5.1587 20.433 4.5044 26.683-0.17304 0.34921-0.96041 9.0189-1.627 17.209-0.20581 2.5323-1.4508 13.518-1.444 17.702 6e-3 4.1791 0.16841 10.679-1.4357 18.265-0.46143 2.1864-2.2531 18.075-2.5325 25.779l-0.0173 0.76709c0.75027-0.28808 1.5299-0.98572 2.0978-1.9618 0.26404-8.1208 1.571-21.934 2.008-24.006 1.6041-7.5858 1.4419-14.085 1.4357-18.265-6e-3 -4.1791 1.2388-15.164 1.4446-17.697 0.66591-8.1945 1.4576-16.865 1.6306-17.214 1.0318-7.7426 1.9773-27.372-6.0645-27.261" fill="#f48e5b"/>
  <path d="m-606.99-145.52c2.0481-3.3141 4.014-11.646 4.7934-16.304 0.66251-3.9907 4.0357-12.995 4.997-15.504-0.0434 0.0841-0.0649 0.13832-0.0649 0.13832s9.7081-28.548 3.9317-32.672c-5.6205-4.0056-10.54 5.0971-12.038 8.2729-0.84871 2.6424-3.4857 10.93-3.8841 13.331-0.77509 4.6625-3.8321 13.943-3.3125 11.874-2.2343 5.9713-7.5604 19.865-8.2748 22.759-1.3207 5.3342-9.353 25.881-10.587 27.19 0.3291 1.4472 2.6197 5.1762 6.5601 8.3371 3.8538 3.0869 6.5558 3.4327 7.686 3.4672 0.61919-1.3582 1.732-4.2575 3.2736-9.0286 1.0436-3.2153 4.3994-17.771 6.9195-21.86" fill="#ffd3ab"/>
  <path d="m-581.05-152.99s7.1663-17.914 4.2002-21.979c-4.04-5.5416-8.7425 0.0444-9.9636 1.6892-1.8057 3.976-6.6597 18.418-8.4567 21.683-1.849 3.3536-8.8811 17.944-9.8813 20.304-0.92663 2.1831-8.2099 14.965-10.656 17.692 0.69716 1.0915 3.1307 4.5489 7.2659 6.5047 4.9623 2.3411 7.4348 2.7461 7.4348 2.7461s1.5329-2.8153 3.7758-6.7319c4.2522-8.0309 8.1709-16.738 8.1709-16.738 2.6717-6.3023 8.1103-25.169 8.1103-25.169" fill="#ffd3ab"/>
  <path d="m-601-104.31s-0.6019 8.6829-1.3856 13.533c-1.1821 10.599-8.041 63.141-18.342 70.238l1.5892 1.1162c13.441-6.969 17.281-54.858 17.281-54.858l1.5372-11.696 1.2817-17.835-1.9615-0.49884" fill="#f48e5b"/>
  <path d="m-459.13-21.13h-2.0784l-32.814-8.7915-1.4073-0.38029-8.2748 1.3484-22.512 3.6697s8.5606 13.355 14.428 13.77c5.863 0.41982 20.893-4.1784 20.893-4.1784s4.4167 0.51861 9.418 1.1113l-0.026 6e-3s20.035 4.1784 20.035 15.326c0 0.53341 8e-3 1.0224 0.026 1.4867-0.2165 13.108-0.49796 24.715-0.49796 24.715h2.0784s2.5504-28.987 0.73179-48.082" fill="#f48e5b"/>
  <path d="m-526.21-25.283 22.512-3.6697c-12.315 1.5015-22.512 3.6697-22.512 3.6697" fill="#fcb788"/>
  <path d="m-461.47 0.75033c0-11.147-20.035-15.326-20.035-15.326l0.026-6e-3c-5.0013-0.59268-9.418-1.1113-9.418-1.1113s-15.03 4.5983-20.893 4.1784c-5.8673-0.41488-14.428-13.77-14.428-13.77s4.5293 18.788 3.4294 27.57c-1.0998 8.7817-3.2995 24.666-3.2995 24.666h64.146s0.28145-11.607 0.49795-24.715c-0.0172-0.46428-0.026-0.95324-0.026-1.4867" fill="#fcc99f"/>
  <path d="m-461.21-21.13c0-6.3121-8.0194-8.6977-18.42-9.1472-4.5033-0.19262-9.4483-0.0247-14.393 0.35561l32.814 8.7915" fill="#fcb788"/>
  <g fill="#f48e5b">
   <path d="m-420.4-151.08s7.149-17.924 4.3042-21.929c-3.8841-5.4675-8.513 0.14817-9.7168 1.8028-1.797 3.9809-6.6641 18.418-8.4437 21.692-1.8316 3.3586-8.8161 17.968-9.8164 20.334-0.92232 2.1831-8.132 15-10.539 17.741 0.66683 1.0816 3.0008 4.4896 7.0104 6.3862 4.8064 2.272 7.3742 2.2176 7.3742 2.2176s1.3553-2.3954 3.5767-6.3269c4.2175-8.0457 8.1146-16.763 8.1146-16.763 2.663-6.3072 8.1363-25.155 8.1363-25.155"/>
   <path d="m-446.17-145.71c2.0481-3.3141 4.014-11.641 4.7934-16.304 0.6625-3.9908 4.0357-12.995 4.997-15.504-0.0434 0.0889-0.0648 0.14323-0.0648 0.14323s9.7081-28.548 3.9317-32.672c-5.6205-4.0105-10.539 5.0922-12.038 8.2729-0.8487 2.6375-3.4814 10.93-3.8841 13.326-0.77509 4.6625-3.8322 13.943-3.3125 11.874-2.2344 5.9713-7.5604 19.87-8.2748 22.764-1.3207 5.3342-8.3095 25.377-9.5392 26.681 0.32474 1.4521 1.5718 5.6849 5.5122 8.8409 3.8538 3.0919 7.0451 3.487 8.1796 3.5216 0.43734-2.0299 2.1997-6.7221 2.7799-9.078 0.81839-3.3092 4.3994-17.776 6.9195-21.865"/>
   <path d="m-491.83-173.73c-0.20352-3.3388 0.25546-12.54 0.51095-19.233 0.18186-4.7415 0.49362-12.259 1.0176-18.116-0.0823-10.125-1.5242-22.122-9.0413-20.872-7.9977 1.3385-7.4391 31.837-7.4391 31.837-2.0828 12.486-1.4159 18.304-3.8408 27.881-1.875 7.4086-0.22517 16.166-0.82705 20.329-2.1954 15.222-2.7669 20.161-2.7669 20.161s5.6248 3.2104 11.029 2.998c4.8887-0.19262 10.202-3.6006 11.167-4.2476-0.74911-4.7761-1.0825-7.5617-1.0825-13.701 0-6.1294 0.76644-11.987 1.2731-17.282 0.25979-2.7066 0.25546-5.5713 0-9.7547"/>
  </g>
  <path d="m-470.8-18.156-49.913-7.2258c-5.772-0.83469-10.488-5.6552-11.852-12.111l-8.7122-41.251c-0.72746-3.4425-0.43301-7.0579 0.84003-10.288 0 0 5.9193-6.5146 13.618-27.841 5.8067-16.087 12.094-20.067 23.092-20.482l41.379 11.78c4.867 3.4129 22.599 17.993 21.044 26.108l-14.047 68.88c-2.269 7.5815-9.4743 12.876-15.45 12.432" fill="#fcc99f"/>
  <path d="m-535.52-96.747s24.469 5.3786 34.732 25.446c10.262 20.072 10.63 39.305 10.63 39.305l-45.085-62.296-0.27712-2.4547" fill="#f48e5b"/>
  <path d="m-494.86-21.841s12.397-38.589 30.726-54.893c18.329-16.304 20.893-14.215 20.893-14.215s-6.27 61.877-17.797 69.819c-11.527 7.9469-33.823-0.71122-33.823-0.71122" fill="#ffd3ab"/>
  <path d="m-497.13-54.157c-12.332-26.192-23.088-34.282-40.279-43.622-0.013-6e-3 -0.026-0.01-0.0389-0.0197 0.026-2.7659 0.0303-41.873-19.061-47.919-19.793-6.2726-1.0998 16.304-1.0998 23.831 0 7.5222-3.5074 27.486 3.1956 38.826 0.12127 0.20745 0.24247 0.39512 0.36806 0.57788 0.30743 3.3437 1.1042 6.6776 2.3036 9.5126 4.7631 11.286 16.857 35.537 16.857 35.537 11.73 23.416 29.757 23.95 37.754 18.813 5.8673-3.7636 10.63-12.96 0-35.537" fill="#ffd3ab"/>
  <path d="m-466.46-197.57c0.065-0.52847 0.10394-0.84458 0.10394-0.84458s-0.0476 0.19756-0.12558 0.52849c-0.14289 0.90385-0.23383 1.4224-0.23383 1.4224s0.0823-0.42474 0.25548-1.1064" fill="#d68265"/>
  <path d="m-468.43-152.29c2.5721-7.2308 3.2562-13.686 3.7932-17.82 0.53694-4.1389 3.1956-14.792 3.7282-17.262 1.7234-7.9865 3.6286-16.427 3.8451-16.743 1.5328-6.3862 6.5471-26.992-2.1954-27.353-8.1969-0.3408-12.713 17.43-14.051 23.707l-0.0346 0.7063s-3.7022 18.062-4.9753 23.283c-1.5848 6.4949-3.5204 10.214-4.8887 15.054-1.3683 4.8403-2.3512 10.624-3.4208 14.491-1.4679 5.2996-4.8887 16.447-6.5341 20.897 1.0176 2.0003 4.3821 5.9417 8.6126 7.2555 5.0532 1.5706 7.8158 0.55811 10.873-0.69641 1.0998-4.8748 4.3648-23.036 5.2481-25.52" fill="#ffd3ab"/>
  <path d="m-493.72-174.85c-0.19485-3.3339 0.24682-12.54 0.48931-19.233 0.17319-4.7415 0.47198-12.259 0.9786-18.116-0.078-10.125-2.1218-21.396-7.9847-19.598-7.5084 2.3016-7.8245 30.563-7.8245 30.563-1.9962 12.491-1.3596 18.304-3.6849 27.886-1.797 7.4086-0.21651 16.161-0.79241 20.324-2.1044 15.222-2.6544 20.161-2.6544 20.161s5.3997 3.2153 10.578 2.998c4.6895-0.19263 9.7817-3.9364 10.704-4.5834-0.7188-4.7761-1.0306-7.2258-1.0306-13.365 0-6.1294 0.73179-11.982 1.2211-17.282 0.25115-2.7017 0.24682-5.5713 0-9.7546" fill="#ffd3ab"/>
  <path d="m-453.62-177.2s-0.0476 0.25683-0.12557 0.6964c0.0218-0.0841 0.0519-0.20743 0.0953-0.36056 8e-3 -0.11857 0.0173-0.23213 0.0303-0.33584" fill="#d68265"/>
  <path d="m-458.05-231.26c7.0408 2.1831 2.4465 21.08 0.98727 27.15-0.2165 0.31611-2.1218 8.757-3.8451 16.743-0.53262 2.4695-3.1913 13.123-3.7282 17.262-0.53693 4.134-1.2211 10.589-3.7932 17.82-0.74045 2.0843-4.5769 17.494-5.8543 25.066l-0.11685 0.75568c0.77942-0.15806 1.6411-0.71617 2.3296-1.5854 1.3163-7.9865 4.4037-21.426 5.1052-23.401 2.5721-7.2308 3.2562-13.686 3.7932-17.82 0.53695-4.134 3.1956-14.788 3.7282-17.257 1.7234-7.9914 3.633-16.432 3.8495-16.748 2.0265-7.4827 5.5122-26.735-2.4552-27.985" fill="#f48e5b"/>
  <path d="m-447.85-145.68c2.0481-3.3141 4.014-11.646 4.7934-16.304 0.66249-3.9908 4.0356-12.995 4.9969-15.504-0.0433 0.0841-0.065 0.13832-0.065 0.13832s9.7081-28.548 3.9317-32.672c-5.6205-4.0056-10.539 5.0971-12.038 8.2729-0.84869 2.6424-3.4857 10.93-3.8841 13.331-0.77508 4.6625-3.8322 13.943-3.3125 11.874-2.2343 5.9713-7.5604 19.865-8.2749 22.759-1.3207 5.3342-9.353 25.881-10.587 27.19 0.32908 1.4472 2.6197 5.1761 6.5601 8.3372 3.8538 3.0869 6.5558 3.4326 7.686 3.4672 0.6192-1.3582 1.732-4.2575 3.2736-9.0286 1.0436-3.2153 4.3994-17.771 6.9195-21.86" fill="#ffd3ab"/>
  <path d="m-421.91-153.16s7.1663-17.914 4.2002-21.979c-4.04-5.5416-8.7425 0.0445-9.9636 1.6892-1.8057 3.976-6.6597 18.418-8.4567 21.682-1.849 3.3536-8.8811 17.944-9.8813 20.304-0.92665 2.183-8.2099 14.965-10.656 17.692 0.69714 1.0915 3.1307 4.5489 7.2659 6.5047 4.9623 2.3411 7.4348 2.7461 7.4348 2.7461s1.5329-2.8153 3.7759-6.7319c4.2522-8.0309 8.1709-16.738 8.1709-16.738 2.6717-6.3022 8.1103-25.169 8.1103-25.169" fill="#ffd3ab"/>
  <g fill="#f48e5b">
   <path d="m-441.86-104.48s-0.60188 8.6829-1.3856 13.533c-1.1821 10.599-8.041 63.141-18.342 70.238l1.5892 1.1162c13.441-6.969 17.281-54.858 17.281-54.858l1.5372-11.696 1.2817-17.835-1.9615-0.49883"/>
   <path d="m-454.94-123.24-3.1004 8.4507s1.5632-0.5433 2.2083-1.5163c0.64954-0.97793 2.3902-6.2627 2.3902-6.2627l-1.4982-0.67172"/>
   <path d="m-293.75-44.518c10.408-0.01 18.502 2.0307 18.713 8.3404l-33.085-7.3604-1.42-0.3155-8.2219 1.7078-22.378 4.6461s9.0052 12.968 14.881 13.131c5.8733 0.16661 20.736-5.0883 20.736-5.0883s4.4324 0.32736 9.4518 0.70251l-0.0275 4e-3s20.165 3.3037 20.539 14.443c0.0146 0.52711 0.0402 1.0188 0.0712 1.4823 0.22495 13.103 0.32955 24.72 0.32955 24.72l2.0776-0.087s1.5771-29.081-0.87706-48.081c-0.84326-6.5058-9.7904-8.4256-20.791-8.2463"/>
  </g>
  <path d="m-336.17 14.602 37.627-1.6418z" fill="#d68265"/>
  <path d="m-340.14-37.5 22.378-4.6461c-12.259 2.0342-22.378 4.6461-22.378 4.6461" fill="#f5bc8f"/>
  <path d="m-275.03-36.178c-0.21161-6.3097-8.3049-8.3507-18.713-8.3404-4.5072 4e-3 -9.4459 0.38767-14.371 0.98004l33.085 7.3604" fill="#f5bc8f"/>
  <path d="m-274.56-14.306c-0.37359-11.14-20.539-14.443-20.539-14.443l0.0275-4e-3c-5.0193-0.37515-9.4518-0.70252-9.4518-0.70252s-14.862 5.2549-20.736 5.0883c-5.8763-0.16302-14.881-13.131-14.881-13.131s5.1579 18.578 4.3568 27.399c-0.80723 8.8217-2.4715 24.797-2.4715 24.797l2.0774-0.0941 62.018-2.706s-0.10457-11.616-0.32955-24.72c-0.0309-0.46348-0.0566-0.95517-0.0712-1.4823" fill="#fcc99f"/>
  <path d="m-284.52-32.793-50.12-5.0478c-5.7953-0.58245-10.675-5.1926-12.25-11.583l-10.087-40.839c-0.84358-3.4093-0.66795-7.0342 0.49354-10.318 0 0 5.6989-6.7703 12.673-28.412 5.2649-16.331 11.416-20.584 22.389-21.479l53.24 13.212c7.0336 2.1466 10.922 16.313 9.6366 24.488l-10.957 66.876c-2.0099 7.6788-9.038 13.28-15.019 13.101" fill="#fcc99f"/>
  <path d="m-308.74-35.469s10.89-38.644 28.658-55.734c17.768-17.097 20.399-15.118 20.399-15.118s-4.1924 62.107-15.443 70.546c-11.253 8.4421-33.615 0.30635-33.615 0.30635" fill="#ffd3ab"/>
  <path d="m-343.75-105.27s22.901 17.437 29.768 27.231c6.8733 9.7936 9.6553 32.264 9.6553 32.264s15.824-41.274 32.775-40.7l2.9576-15.053-19.061-17.601s-15.508-7.2221-30.017-3.9573c-14.649 3.2989-26.078 17.816-26.078 17.816" fill="#fcc99f"/>
  <path d="m-352.17-108.82s24.974 4.6282 35.903 24.234c10.928 19.605 11.94 38.812 11.94 38.812l-47.144-60.287-0.6992-2.7585" fill="#f48e5b"/>
  <path d="m-349.2-49.264s-12.901-23.703-18.04-34.774c-5.6179-12.103-3.9928-33.996 13.494-25.417 17.487 8.5862 28.509 16.2 41.711 41.836 11.38 22.095 6.927 31.495 1.191 35.513-7.8228 5.4755-25.853 5.7274-38.356-17.158" fill="#ffd3ab"/>
  <path d="m-352.17-108.82s-22.929-32.633-41.65-22.976c-18.717 9.6532 8.3182 13.321 12.549 19.096 4.2264 5.7796 12.749 23.669 24.266 27.474 11.521 3.8058 4.8352-23.595 4.8352-23.595" fill="#ffd3ab"/>
  <path d="m-294.12-135.36c0.0182 0.18101 0.0446 0.32311 0.0752 0.41612 0.0546 0.16545 0.12214 0.16945 0.19721 0.0333-0.14125-0.28395-0.21127-0.45211-0.21127-0.45211s-0.0184 8.1e-4 -0.0612 3e-3" fill="#d68265"/>
  <path d="m-277.71-127.18c0.0101 0.82442 0.13136 1.1756 0.45564 0.70358 0.0877-0.12264 0.17847-0.34331 0.27605-0.63065-0.19728-0.12769-0.30416-0.20689-0.30416-0.20689s-0.14817 0.0589-0.42755 0.13398" fill="#d68265"/>
  <path d="m-273.67-32.417c13.198-7.5519 15.326-57.857 15.326-57.857l1.3786-10.695s-2.6021-5.5029-3.024-5.5649c-0.82888 10.643-5.2501 63.461-15.302 71.005l1.6211 3.1132" fill="#f48e5b"/>
  <path d="m-258.45-120.78s-0.35743 9.169-0.97531 14.044c-0.39737 3.1349 2.2232 4.7121 2.2232 4.7121l0.68427-17.879-1.9322-0.87683" fill="#d68265"/>
  <path d="m-315.12-123.49s-6.3307 24.752 6.5697 27.509c11.366 2.4294 14.865-23.349 15.765-27.023 0.9805-4.0201 5.9001-20.689 6.1505-23.091 0.58493-5.5826 0.98724-16.428-8.0851-19.247-5.4033-1.683-11.703 2.5272-14.313 9.1069-4.7329 11.911-3.9097 21.749-6.0872 32.745" fill="#f48e5b"/>
  <path d="m-335.41-124.07s-2.6754 19.72 8.6844 21.86c11.754 2.2132 14.847-22.984 15.518-26.718 0.67438-3.7376 6.0679-24.457 4.353-30.914-3.2293-12.144-14.941-16.002-20.738-6.4067-6.2183 10.288-6.779 19.606-7.8176 42.18" fill="#f48e5b"/>
  <path d="m-333.26-130.96s-3.9326 23.441 5.416 24.903c9.3485 1.4619 9.4937-13.304 10.165-17.038 0.67143-3.734 6.3847-32.733 5.7523-39.44-0.6354-6.7036-12.404-9.437-16.205-0.88316-4.7376 10.674-3.6177 21.317-5.1285 32.458" fill="#ffd3ab"/>
  <path d="m-260.31-137.32s11.566 1.8999 7.4298 23.645c-4.1366 21.745-6.487 23.839-6.487 23.839l-7.1465-28.994 6.2036-18.49" fill="#f48e5b"/>
  <path d="m-261.86-137.8s10.143 2.4094 6.453 22.936c-3.6963 20.527-6.0999 24.417-6.0999 24.417l-6.1736-29.312 5.8204-18.04" fill="#f5bc8f"/>
  <path d="m-290.78-131.02s1.9091-20.005 9.9924-24.108c7.5683-3.8392 14.719 2.8074 15.623 6.9269 1.2112 5.5077 0.27434 8.1803-0.53199 14.653-0.75647 6.0409-5.5969 6.7973-6.2294 8.9499-2.9426 10.019-3.2592 14.007-6.2978 22.901-1.3841 4.0447-3.935 12.222-11.443 10.74-5.9315-1.1706-9.9026-7.568-6.6246-21.656 2.2708-9.7662 3.3992-11.57 5.5109-18.407" fill="#f48e5b"/>
  <path d="m-259.25-137.78c-7.3799-2.3307-11.337 4.3007-14.004 12.309-2.6639 8.0044-5.3861 22.767-6.1328 28.825-0.74375 6.0543 3.3635 10.663 7.8327 10.168 5.0462-0.55917 7.2747-4.7351 8.7578-9.4831 1.4197-4.5391 2.9272-10.386 3.6609-12.903 1.0562-3.59 2.2138-6.7161 4.1075-12.013 2.3477-6.5612 3.7802-14.372-4.2223-16.903" fill="#f48e5b"/>
  <g fill="#ffd3ab">
   <path d="m-259.95-136.16c-5.8967-2.3255-9.7862 4.0338-11.935 11.593-2.1458 7.5554-4.6856 19.717-5.2931 25.451-0.61038 5.7375 3.4214 8.4624 6.993 8.0619 4.0386-0.45231 5.07-2.6817 6.2649-7.162 1.1432-4.2858 2.3612-9.8121 2.9557-12.187 0.85154-3.3888 1.779-6.3406 3.3058-11.339 1.8914-6.1883 4.1021-11.898-2.2914-14.418"/>
   <path d="m-290.99-132.01s5.0178-22.147 13.057-22.074c6.4641 0.0569 9.0549 2.8483 10.225 6.5753 1.7252 5.4853-5.114 17.817-6.1578 21.501-2.6425 9.3736-1.7817 8.27-4.5208 16.592-1.2428 3.7834-4.9663 15.549-10.505 14.767-5.4338-0.76598-9.0843-5.9156-6.1403-19.091 2.0408-9.1341 2.1419-11.875 4.0417-18.27"/>
   <path d="m-313.36-125.81s-5.3359 23.076 3.9024 25.27c9.2383 2.1937 10.557-13.588 11.454-17.258 0.89407-3.6738 8.0544-31.097 7.8254-37.836-0.22295-6.7391-10.292-12.678-16.107-2.1527-5.5958 10.118-4.8975 20.981-7.075 31.977"/>
  </g>
  <path d="m-202.88-38.874s4.5306 18.793 3.4308 27.57c-1.0994 8.7817-3.2987 24.671-3.2987 24.671h64.145s2.5513-28.987 0.7331-48.082c-1.7022-17.874-65.011-4.1587-65.011-4.1587" fill="#f48e5b"/>
  <path d="m-204.96-38.874s4.5306 18.793 3.4308 27.57c-1.0994 8.7817-3.2987 24.671-3.2987 24.671h64.145s0.73307-30.104 0.73307-48.082c0-17.978-65.011-4.1587-65.011-4.1587" fill="#fcc99f"/>
  <path d="m-160.24-28.166s20.038 4.1834 20.038 15.331c0 7.8679 1.7104 8.0852 1.7104 8.0852l-1.2219-24.532-9.7744-0.55317-10.752 1.6694" fill="#f48e5b"/>
  <path d="m-196.7-31.638-14.68-29.17c5.1814-23.14-10.362-57.343 6.0453-70.421 16.407-13.079 19.489 8.0161 19.489 8.0161s2.9635-24.112 12.463-23.105c9.499 1.0026 13.839 15.104 13.839 15.104s6.8857-10.076 14.658-8.0655c7.7717 2.0151 7.86 16.59 7.86 16.59s7.304-2.5881 11.387 6.7418c2.8284 6.4603 3.012 24.557 3.012 24.557s5.2702 48.245-7.1529 60.963c-10.256 10.5-23.033 2.4992-34.259 3.5067-11.226 1.0076-20.571 2.3263-32.661-4.7168" fill="#f48e5b"/>
  <path d="m-198.45-34.265-23.433-30.518c4.0153-26.898-1.506-51.46 11.043-70.757 12.005-18.457 23.616 4.697 23.616 4.697s2.5907-19.114 12.09-18.107c9.499 1.0076 14.992 14.289 14.992 14.289s5.7335-9.2608 13.506-7.2456c7.7717 2.0102 9.9614 16.457 9.9614 16.457s8.4078-3.6549 12.491 5.675c2.8284 6.4603-1.3224 26.192-1.3224 26.192s4.4496 49.277-6.7766 58.33c-11.226 9.0533-22.989-1.0273-34.215-0.0197-11.226 1.0076-19.862 8.0457-31.951 1.0076" fill="#ffd3ab"/>
  <path d="m-202.56-119.75s1.7567 18.714 3.0116 23.1c1.2549 4.3859 7.278 16.373 10.792 15.202 3.5139-1.1706 5.7725-3.2153 5.7725-3.2153s5.2706 6.1393 9.7882 6.7221c4.5176 0.58774 12.8-3.2153 12.8-3.2153s0.75301 4.9687 5.7725 5.265c5.0195 0.2914 10.792-4.6822 10.792-4.6822s1.2549 3.5117 4.7688 3.5117c3.5139 0 9.7882-7.8926 9.7882-7.8926l-7.8864 10.1s-12.192 4.5143-19.345 15.919c-3.135 4.9983-7.1585 20.769-8.2826 23.683 0 0 0.6911-28.671-12.423-30.405-13.338-1.7633-27.357-8.7718-27.357-8.7718s-5.5213-9.6509-5.2706-20.759c0.25114-11.113 7.2785-24.562 7.2785-24.562" fill="#fcc99f"/>
  <path d="m-187.23-130.84s-0.49059-1.0323-1.8347-3.0968c0.38451 3.2252 0.82533 5.3441 1.0618 8.3717 0.65643 8.4162 3.0003 16.388 3.8599 24.71 0.47976 4.6427-0.53304 10.347-4.9528 11.893-4.0655 1.4224-6.8113-2.8548-8.3666-6.5443-3.4896-8.2779-3.9361-17.405-4.7012-26.35-0.0615-0.71618-0.58585-0.98783-0.88203 0.1531-2.3712 9.1274-0.20828 20.393 3.1458 28.854 2.6829 6.7616 8.652 13.266 14.806 7.0234 0.91496-0.92855 1.6502-1.9312 2.2391-2.9931 7e-3 0.0543 0.0123 0.10375 0.0199 0.15805 0.51701 3.5462 2.4543 9.1916 5.1173 11.602 2.6881 2.43 7.4959 2.514 10.541 1.7534 2.6327-0.65689 4.3275-1.5262 5.8859-3.5462 0.51441 2.3362 1.684 4.3908 3.6932 5.591 5.1212 3.0573 10.848-0.73098 14.111-5.5169 0.86775 2.7955 3.3874 4.6872 6.3211 3.9266 5.2732-1.3632 8.5516-9.6312 10.483-14.807 0.4408-1.1804 0.82966-2.3905 1.1934-3.6055-0.016-0.20743-0.0251-0.31609-0.0251-0.31609s4.1508-19.732 1.3224-26.192c-0.6179-1.4126-1.3358-2.5238-2.1075-3.3981 1.2596 7.458 1.0769 15.504-0.33819 22.631-0.93919 4.7316-2.534 9.3003-4.6969 13.449-1.6402 3.1462-7.828 12.081-10.26 4.8551 2.7721-6.3319 2.8185-13.839 2.9921-20.823 0.13161-5.2947-0.46506-10.031 0.41395-15.227 0.40443-2.3905 0.89114-4.7612 1.5354-7.1764-0.0186 0.01-0.0297 0.0148-0.0297 0.0148s-0.23035-1.5114-0.8015-3.6203c-3.5944 9.1076-3.9763 20.443-4.4236 29.96-0.31652 6.7369-1.1046 13.938-5.9374 18.433-1.9152 1.7781-4.4176 2.9585-6.9009 2.5535-3.2017-0.51861-3.8525-2.9733-4.0244-5.7787 0.86082-2.8894 1.1509-6.2183 0.88032-8.9496-0.62399-6.2924-1.5-12.516-1.888-18.847-0.46765-7.6407-0.5655-15.351-0.31999-23.041-0.0316 0.0494-0.051 0.079-0.051 0.079s-0.54775-1.3237-1.5952-3.1659c-1.3237 12.807-1.3276 25.703-0.0172 38.619 0.4733 4.6674 2.2356 12.135-0.89719 16.008-2.5552 3.156-3.9789 3.2252-7.5292 3.2153-2.4331-4e-3 -5.0199 0-7.5297-3.2153-1.3025-1.6694-1.7268-4.8502-2.078-7.053-0.6322-3.971-0.73957-7.9963-1.1384-12.002-0.0286-0.28152-0.13943-0.49391-0.2819-0.64207-0.49449-3.6549-1.5026-6.3418-2.3998-9.5423l-3.6148-18.403" fill="#f48e5b"/>
  <path d="m-174.85-104.12c-18.064-7.2999-20.252-2.351-31.356 12.728-5.1732 7.0283-8.9499 10.1-11.367 11.888-3.5749 2.6474-5.6309 7.4086-5.4356 12.372 0.0945 2.3955 0.48238 4.944 1.3861 7.3691 0.0848 1.4965 0.25807 3.1166 0.5378 4.8798 5.5958 35.285 38.773 34.815 47.567 29.639 8.7936-5.1761 15.635-18.462 6.8407-33.986-7.2304-12.767-20.167-10.421-23.717-9.7942 2.8882-5.6404 5.9188-9.8238 9.6626-10.382 5.9747-0.88411 11.128 3.5215 17.569 0.87914 11.459-4.7069 6.167-18.383-11.687-25.594" fill="#f48e5b"/>
  <path d="m-175.46-102.21c-17.013-6.806-19.229-2.6424-29.687 11.414-4.8722 6.5492-8.274 9.8682-10.55 11.538-3.3671 2.4646-5.3035 6.9048-5.1195 11.533 0.0883 2.2275 0.45423 4.6032 1.3051 6.8702 0.0802 1.3928 0.24334 2.9042 0.50661 4.5489 5.2706 32.889 36.517 32.455 44.8 27.629 8.2822-4.8254 12.8-16.664 4.5176-31.141-6.8104-11.898-21.879-6.7171-25.223-6.1393 2.7202-5.2552 9.1482-14.684 12.674-15.202 5.627-0.82483 12.005 3.0523 18.07 0.58279 10.792-4.3859 5.5218-14.911-11.294-21.633" fill="#ffd3ab"/>
  <path d="m-213.73-103.99c6.2968-2.3609 11.97-10.283 11.493-18.121-0.0247-0.39512-0.48151-0.89396-0.63132-0.27657-0.86127 3.566-1.4978 6.8752-3.3177 10.021-1.9421 3.3586-4.5687 5.8972-7.6435 7.8284-0.17494 0.10863-0.14202 0.63712 0.0995 0.54822" fill="#f48e5b"/>
  <path d="m-188.17-84.609c4.1309 3.4228 9.7679 7.132 15.11 6.159 0.41179-0.0741 0.47198-1.0471 0.0666-1.1854-2.411-0.81-4.945-0.95324-7.3642-1.8028-2.6163-0.92853-5.2936-2.104-7.6353-3.7389-0.26717-0.18768-0.36504 0.40994-0.17711 0.56799" fill="#d68265"/>
  <path d="m99.906 118.26c-3.5098-4.1658-7.4384-6.3309-11.768-4.6085-8.1657 3.2503-9.5279 11.266-8.7687 17.309-1.6712-3.0778-2.4637-4.5116-5.0297-5.5725-8.0819-3.3615-14.942 3.8299-16.061 8.2777-1.0868 4.3186-0.807 7.3353 0.018 11.268-1.7872-0.6396-3.7101-0.87095-5.9013 0.34654-3.7475 2.0891-5.5249 5.8163-5.6114 11.084-0.1139 6.6323 1.8187 10.741 4.2838 17.481 3.2718 8.9534 4.221 10.907 5.6465 14.282l2.1047 10.038s3.6896 43.263 17.093 51.799c-1.1731 19.882 1.9307 44.253 1.9307 44.253l59.254-1.1038 6.0382 0.0175s-1.2288-12.892-2.6233-21.969c-1.2667-8.2498 2.0632-25.258 2.6797-28.286 3.1522-3.394 6.1346-7.7869 8.7484-13.406 0 0 9.7824-21.122 15.047-33.918 7.7241-7.0735 12.298-16.632 16.411-20.058 7.5773-6.324 29.579-9.688 11.509-22.645-14.805-10.618-32.936 6.5115-38.594 13.63l-3.7807 3.5966c-4.0988-5.8266-7.6558-10.441-12.067-19.392-5.0763-10.304-6.7614-13.431-10.474-20.428-1.5527-8.49-3.6758-14.279-7.8465-20.252-6.5759-9.4042-19.561-4.4248-22.238 8.2553" fill="#f48e5b"/>
  <path d="m100.12 121.28c-3.3815-4.0058-8.3197-5.9643-12.482-4.3051-7.8606 3.1295-7.9305 11.939-7.2016 17.752-1.6085-2.9608-3.6151-5.428-6.0808-6.4567-7.7851-3.2302-14.515 3.968-15.167 8.1479-0.6634 4.2592-0.1847 6.7822 0.6115 10.562-1.7219-0.61151-3.6618-0.59051-5.8718 0.30139-4.9618 2.004-5.5925 4.0098-6.2104 9.5869-0.4016 3.6503 0.2386 8.8668 1.9215 15.462 2.289 8.9667 4.1364 14.362 5.5118 17.61l0.7672 4.8084s4.9072 45.452 17.807 53.665c-0.01 0.10879-0.014 0.21276-0.016 0.31655-0.1738-0.0305-0.2608-0.0482-0.2608-0.0482s-0.03 3.854 0.036 9.2026c0.01 3.6258 0.1157 7.3383 0.2722 10.956 0.073 1.8706 0.1588 3.7458 0.2653 5.5613 0.106 1.7908 0.2508 3.8078 0.418 5.8689 0.6488 8.7979 1.3889 15.222 1.3889 15.222l2.0775-0.0736s-0.02-0.42929-0.061-1.2039l25.511-16.177 22.677-14.851 14.594-21.824c3.0333-3.2677 5.9061-7.495 8.4198-12.904 0 0 9.4156-20.328 14.485-32.645 7.4343-6.8098 13.075-17.712 16.264-21.962 4.2926-5.7131 31.367-8.9792 12.763-18.91-15.788-8.4263-34.949 13.539-40.394 20.391l-0.3151-0.41742c-3.9476-5.6079-9.6027-13.675-13.847-22.29-4.8874-9.9182-6.5099-12.933-10.084-19.666-1.4907-8.1754-3.5362-13.744-7.5556-19.494-6.3269-9.0544-17.668-4.3904-20.245 7.8131" fill="#ffd3ab"/>
  <path d="m53.925 147.28c2.21-0.8919 4.1499-0.9129 5.8718-0.30139-0.7962-3.7802-1.2749-6.3032-0.6115-10.562 0.6519-4.1799 7.3819-11.378 15.167-8.1479 2.4657 1.0287 4.4723 3.496 6.0808 6.4567-0.7289-5.8122-0.6633-14.622 7.2016-17.752 4.1623-1.6592 9.1005 0.29935 12.482 4.3051 2.5768-12.204 13.918-16.867 20.245-7.8131 4.0194 5.7494 6.0649 11.318 7.5555 19.494 0 0-4.919-8.3218-12.582-7.173-7.6624 1.1538-12.055 9.2059-12.055 9.2059s-7.1085-6.7635-13.141-2.1604c-6.0277 4.603-6.6019 11.641-6.6019 11.641s-6.3178-5.9176-13.116-1.2866c-6.7982 4.631-5.1144 9.8377-5.1144 9.8377s-3.2448-6.0295-8.5267-2.3284c-5.2862 3.6963-4.25 13.315-4.25 13.315l-4.916-5.2689c0.01-0.65728 0.037-1.2952 0.1009-1.8747 0.6179-5.5771 1.2486-7.5828 6.2103-9.5869" fill="#fcc99f"/>
  <path d="m126.67 255.2c-5.8485 0.62688-20.994-3.4327-20.994-3.4327s-4.4011 0.67677-9.3896 1.4464l0.031 4e-3s-19.916 4.8907-19.611 16.033c0.014 0.52827 0.018 1.0123 0.018 1.4717 0.5751 13.098 1.175 24.703 1.175 24.703l62.041-2.2127 2.0732-0.0786s-2.6336-15.801-3.9741-24.538c-1.218-7.9397 1.9894-24.308 2.5819-27.227-0.1869 0.202-0.3696 0.39898-0.5566 0.59112-2.0472 3.1901-8.5271 12.719-13.394 13.239" fill="#fcc99f"/>
  <path d="m-835.99-37.001s-12.098-24.246-16.861-35.537c-5.2091-12.338-2.8492-34.144 14.337-24.809 17.186 9.3398 27.947 17.43 40.279 43.622 10.63 22.576 5.863 31.778 0 35.542-8.002 5.1317-26.024 4.5983-37.754-18.818" fill="#ffd3ab"/>
  <path d="m-833.79-81.912s41.781-16.669 32.809-43.567c-7.3049-21.9-16.407 1.7583-22.045 6.727-5.2221 4.6032-21.512 12.387-27.795 24.038-6.283 11.651 17.03 12.802 17.03 12.802" fill="#f48e5b"/>
  <path d="m-834.09-84.436s33.68-16.521 30.501-39.671c-3.1783-23.149-13.471 5.596-19.481 8.7076-6.0059 3.1116-23.391 7.7198-29.674 19.371-6.283 11.651 18.654 11.592 18.654 11.592" fill="#ffd3ab"/>
  <path d="m-693.04-34.836s-12.098-24.246-16.861-35.537c-5.2091-12.338-2.8492-34.144 14.337-24.809 17.186 9.3398 27.947 17.43 40.279 43.622 10.63 22.576 5.863 31.778 0 35.542-8.0021 5.1317-26.024 4.5983-37.754-18.818" fill="#ffd3ab"/>
  <path d="m-690.84-79.747s41.781-16.669 32.809-43.567c-7.3049-21.9-16.407 1.7583-22.045 6.727-5.2221 4.6032-21.512 12.387-27.795 24.038s17.03 12.802 17.03 12.802" fill="#f48e5b"/>
  <path d="m-691.14-82.271s33.68-16.521 30.501-39.671c-3.1783-23.149-13.471 5.596-19.481 8.7076-6.0059 3.1116-23.391 7.7198-29.674 19.371-6.283 11.651 18.654 11.592 18.654 11.592" fill="#ffd3ab"/>
 </g>
</svg>
